<?xml version="1.0" encoding="UTF-8"?>
<svg width="112px" height="100px" viewBox="0 0 112 100" version="1.1" xmlns="http://www.w3.org/2000/svg" xmlns:xlink="http://www.w3.org/1999/xlink">
    <title>967A3E9F-2D3D-4247-B11F-D7AD7B5D047B</title>
    <g id="UI---People-Profiler-Admin" stroke="none" stroke-width="1" fill="none" fill-rule="evenodd">
        <g id="2.4.2---Agency-Admin---Payment-Info-Added" transform="translate(-664.000000, -287.000000)" fill="#3ABCCA" fill-rule="nonzero">
            <g id="Group-3" transform="translate(420.000000, 225.000000)">
                <g id="Group-2" transform="translate(0.000000, 62.000000)">
                    <g id="credit-card" transform="translate(244.000000, 0.000000)">
                        <path d="M88.3195036,78.0893035 C87.3321047,77.3770034 85.9766339,77.6331418 85.2924812,78.6601843 C84.6294295,79.6557752 83.878058,80.6237611 83.0581624,81.5376683 C82.5088824,82.1506355 81.7531601,82.8896355 80.9308716,83.6173219 C80.0159125,84.4273708 79.9054039,85.855365 80.6839675,86.8072856 C81.114255,87.3331386 81.7261855,87.6033058 82.3418142,87.6033058 C82.8401907,87.6033058 83.3411776,87.4261359 83.750799,87.0636503 C84.7101356,86.2142302 85.5713632,85.3706932 86.2400708,84.6237738 C87.2020178,83.5517034 88.0865218,82.4124306 88.8687836,81.2376334 C89.5529363,80.2105909 89.3071199,78.8009247 88.3195036,78.0893035 Z" id="Path"></path>
                        <path d="M79.1480169,87.9519068 C78.675714,86.9311322 77.4774415,86.4917908 76.4704256,86.9705341 L76.4074116,86.9993199 C75.3901283,87.4543812 74.929502,88.6597119 75.3786529,89.6913068 C75.7108353,90.4548462 76.4480788,90.9090909 77.2213591,90.9090909 C77.4929434,90.9090909 77.7689567,90.8529483 78.0330921,90.7347426 C78.0822148,90.712898 78.1309349,90.690441 78.1798563,90.6673715 C79.1864695,90.188424 79.6199172,88.9730897 79.1480169,87.9519068 Z" id="Path"></path>
                        <path d="M105.06018,0 L6.51006767,0 C2.92021479,0 0,2.91370199 0,6.49457934 L0,67.4190596 C0,70.9997196 2.92021479,73.9132042 6.51006767,73.9132042 L52.3989082,73.9132042 C54.3441927,82.1240916 58.7431462,87.9393216 62.5877361,91.6649819 C68.19936,97.1036894 74.6320695,100 77.1182071,100 C79.6041269,100 86.0368364,97.1039067 91.6486782,91.6651993 C95.4932681,87.9393216 99.8924395,82.1240916 101.837506,73.9134216 L105.06018,73.9134216 C108.649815,73.9134216 111.570248,70.999937 111.570248,67.419277 L111.570248,6.49457934 C111.570248,2.91370199 108.649815,0 105.06018,0 Z M98.4954171,65.0040544 C98.4954171,76.4579923 93.1958407,84.0556175 88.7496007,88.4123661 C83.4755197,93.5804208 78.0654628,95.5906426 77.1182071,95.6517297 C76.1707335,95.5906426 70.7604587,93.5806382 65.4863778,88.4123661 C61.0405736,84.0556175 55.7407792,76.4579923 55.7407792,65.0040544 L55.7407792,54.2983789 C63.2434279,52.133809 70.2636234,49.1714112 77.1188609,45.2783593 C83.8196,49.072498 91.1544578,52.1666351 98.4954171,54.2970746 L98.4954171,65.0040544 Z M107.212044,67.4190596 C107.212044,68.6025404 106.246483,69.5653686 105.06018,69.5653686 L102.595398,69.5653686 C102.762317,68.1086263 102.853839,66.5894926 102.853839,65.0040544 L102.853839,52.6501145 C102.853839,51.668808 102.194879,50.8094583 101.24588,50.5522838 C93.3329062,48.4085835 85.3702491,45.0681415 78.2188716,40.8922628 C77.5389918,40.4953054 76.6974225,40.4957402 76.0171068,40.8926976 C68.6630729,45.1870548 61.1310063,48.3464094 52.9905344,50.5522838 C52.0415354,50.8096757 51.3825749,51.6690254 51.3825749,52.6501145 L51.3825749,65.0040544 C51.3825749,66.5894926 51.4738793,68.1086263 51.6410165,69.5653686 L6.51006767,69.5653686 C5.32354655,69.5653686 4.3582043,68.602323 4.3582043,67.4190596 L4.3582043,30.434414 L107.212044,30.434414 L107.212044,67.4190596 Z M107.212044,26.0867958 L4.3582043,26.0867958 L4.3582043,17.3915595 L107.212044,17.3915595 L107.212044,26.0867958 Z M107.212044,13.0435066 L4.3582043,13.0435066 L4.3582043,6.49457934 C4.3582043,5.31088111 5.32354655,4.34783554 6.51006767,4.34783554 L105.06018,4.34783554 C106.246483,4.34783554 107.212044,5.31088111 107.212044,6.49457934 L107.212044,13.0435066 Z" id="Shape"></path>
                        <path d="M25.7184148,45.4545455 C24.4029756,45.4545455 23.1041184,45.7232016 21.9019174,46.2353893 C20.7274259,45.7326784 19.4366416,45.4545455 18.0830199,45.4545455 C12.6691878,45.4545455 8.26446281,49.9033496 8.26446281,55.3716804 C8.26446281,60.8400113 12.6689696,65.2892562 18.0830199,65.2892562 C19.4366416,65.2892562 20.7274259,65.0111233 21.9016992,64.5084124 C23.1041184,65.0206001 24.4029756,65.2892562 25.7184148,65.2892562 C31.1324651,65.2892562 35.5371901,60.8400113 35.5371901,55.3716804 C35.5371901,49.9033496 31.1324651,45.4545455 25.7184148,45.4545455 Z M18.0830199,60.8814447 C15.0751172,60.8814447 12.628169,58.4099849 12.628169,55.3716804 C12.628169,52.3335964 15.0751172,49.8623569 18.0830199,49.8623569 C21.0904862,49.8623569 23.5374345,52.3335964 23.5374345,55.3716804 C23.5374345,58.4097645 21.0904862,60.8814447 18.0830199,60.8814447 Z M26.2592962,60.8545571 C27.2956764,59.2829519 27.9011406,57.3975106 27.9011406,55.3719008 C27.9011406,53.3462911 27.2956764,51.4612905 26.2595144,49.8896853 C29.0141039,50.1647328 31.1732657,52.5185041 31.1732657,55.3719008 C31.1732657,58.2252976 29.0141039,60.5792893 26.2592962,60.8545571 Z" id="Shape"></path>
                        <path d="M21.7688544,36.3636364 L10.4625505,36.3636364 C9.24854669,36.3636364 8.26446281,37.2886364 8.26446281,38.4297521 C8.26446281,39.5706612 9.24854669,40.4958678 10.4625505,40.4958678 L21.7688544,40.4958678 C22.9828583,40.4958678 23.9669421,39.5704545 23.9669421,38.4297521 C23.9669421,37.2886364 22.9828583,36.3636364 21.7688544,36.3636364 Z" id="Path"></path>
                        <path d="M28.56023,36.3636364 L28.4645634,36.3636364 C27.349866,36.3636364 26.446281,37.2886364 26.446281,38.4297521 C26.446281,39.5706612 27.349866,40.4958678 28.4645634,40.4958678 L28.56023,40.4958678 C29.6747255,40.4958678 30.5785124,39.5704545 30.5785124,38.4297521 C30.5785124,37.2886364 29.6747255,36.3636364 28.56023,36.3636364 Z" id="Path"></path>
                        <path d="M88.6283063,60.1350746 C87.7915099,59.2940695 86.4341546,59.2936386 85.5965007,60.1348591 L74.1311256,71.6570378 L68.1230436,65.6183069 C67.285604,64.7775173 65.9280343,64.7770864 65.0908092,65.6183069 C64.253584,66.4599584 64.2533696,67.824356 65.0908092,68.665792 L72.6151156,76.2281578 C73.0338354,76.6489835 73.5824805,76.8595041 74.1311256,76.8595041 C74.6797708,76.8595041 75.2286303,76.6489835 75.6469212,76.2281578 L88.6280919,63.1825597 C89.4655314,62.3413392 89.4655314,60.9769416 88.6283063,60.1350746 Z" id="Path"></path>
                    </g>
                </g>
            </g>
        </g>
    </g>
</svg>