<?xml version="1.0" encoding="UTF-8"?>
<svg width="60px" height="46px" viewBox="0 0 60 46" version="1.1" xmlns="http://www.w3.org/2000/svg" xmlns:xlink="http://www.w3.org/1999/xlink">
    <title>A589A426-381F-44FA-AE05-E1419EB82F73</title>
    <defs>
        <filter id="filter-1">
            <feColorMatrix in="SourceGraphic" type="matrix" values="0 0 0 0 0.886275 0 0 0 0 0.960784 0 0 0 0 0.968627 0 0 0 1.000000 0"></feColorMatrix>
        </filter>
    </defs>
    <g id="UI---People-Profiler-Admin" stroke="none" stroke-width="1" fill="none" fill-rule="evenodd">
        <g id="envelope" transform="translate(-310.000000, -410.000000)" filter="url(#filter-1)">
            <g transform="translate(310.000000, 410.000000)">
                <path d="M54.3749609,0.110466791 L5.62503914,0.110466791 C2.52320178,0.110466791 6.66133815e-15,2.63366857 6.66133815e-15,5.73550593 L6.66133815e-15,39.4854903 C6.66133815e-15,42.5873276 2.52320178,45.1105294 5.62503914,45.1105294 L54.3749609,45.1105294 C57.4767982,45.1105294 60,42.5873276 60,39.4854903 L60,5.73550593 C60,2.63366857 57.4767982,0.110466791 54.3749609,0.110466791 Z M54.3749609,3.86045114 C54.6297108,3.86045114 54.8720614,3.91330486 55.0936212,4.00561101 L30,25.754418 L4.90625352,4.00561101 C5.12781333,3.91343011 5.37016395,3.86045114 5.62491389,3.86045114 L54.3749609,3.86045114 Z M54.3749609,41.3604198 L5.62503914,41.3604198 C4.59050887,41.3604198 3.74998434,40.5200205 3.74998434,39.485365 L3.74998434,7.96751124 L28.7713388,29.6526934 C29.1247824,29.9584184 29.5623912,30.1104668 30,30.1104668 C30.4376088,30.1104668 30.8752176,29.9585436 31.2286612,29.6526934 L56.2500157,7.96751124 L56.2500157,39.4854903 C56.2500157,40.5200205 55.4094911,41.3604198 54.3749609,41.3604198 L54.3749609,41.3604198 Z" id="Shape" fill="#000000" fill-rule="nonzero"></path>
            </g>
        </g>
    </g>
</svg>