<svg xmlns="http://www.w3.org/2000/svg" width="70" height="63" viewBox="0 0 70 63">
    <g fill="none" fill-rule="evenodd" opacity=".15">
        <g fill="#3ABCCA" stroke="#3ABCCA" stroke-width=".3">
            <g>
                <g>
                    <path d="M64.208 56.225c0 1.545-1.252 2.803-2.791 2.803H13.958c-1.539 0-2.791-1.258-2.791-2.803v-30.83c0-1.544 1.252-2.802 2.791-2.802h47.459c1.539 0 2.791 1.258 2.791 2.803v30.829zm-56.9-17.99l1.067-.623v2.493l-1.066-1.87zM4.173 27.14l4.28-2.5c-.035.25-.077.497-.077.757v2.509l-5.216 3.048c-.754-1.336-.302-3.045 1.013-3.814h0zm4.203 7.23l-2.453 1.434-1.378-2.417 3.831-2.239v3.223zM44.879 3.35c.633-.37 1.369-.473 2.074-.282.713.192 1.307.655 1.676 1.302l.003.005L22.257 19.79h-5.51L44.878 3.348zm7.905 8.306l4.64 8.135h-18.56l13.92-8.135zm-24.98 8.135L50.02 6.806l1.378 2.417-18.08 10.567h-5.512zm33.613 0h-.776L51.053 2.976C50.31 1.676 49.11.746 47.675.36c-.534-.143-1.076-.205-1.614-.187-.9.03-1.786.284-2.587.752L2.769 24.717C.988 25.757-.008 27.656 0 29.6c.004.94.244 1.89.74 2.76l7.635 13.388v10.477c0 3.091 2.504 5.605 5.583 5.605h47.459c3.079 0 5.583-2.514 5.583-5.605v-30.83c0-3.09-2.504-5.605-5.583-5.605h0z" transform="translate(-302 -402) translate(270 373) translate(33.392 29)"/>
                    <path d="M52.972 49.767c-.67 0-1.316-.197-1.87-.567-.254-.17-.553-.255-.852-.255-.3 0-.598.085-.852.255-.554.37-1.2.567-1.87.567-1.701 0-3.085-1.203-3.085-2.681s1.384-2.681 3.085-2.681c.67 0 1.316.196 1.87.567.508.34 1.196.34 1.704 0 .554-.37 1.2-.567 1.87-.567 1.701 0 3.085 1.203 3.085 2.68 0 1.479-1.384 2.682-3.085 2.682m0-8.043c-.953 0-1.879.204-2.722.597-.844-.393-1.77-.597-2.722-.597-3.302 0-5.988 2.405-5.988 5.362 0 2.957 2.686 5.361 5.988 5.361.953 0 1.878-.204 2.722-.596.843.392 1.77.596 2.722.596 3.302 0 5.988-2.404 5.988-5.361s-2.686-5.362-5.988-5.362M17.532 44.405h14.516c.803 0 1.452-.6 1.452-1.34 0-.741-.65-1.341-1.452-1.341H17.532c-.803 0-1.452.6-1.452 1.34 0 .741.65 1.34 1.452 1.34M37.436 51.107H17.504c-.787 0-1.424.6-1.424 1.34 0 .741.637 1.34 1.424 1.34h19.932c.787 0 1.424-.599 1.424-1.34 0-.74-.637-1.34-1.424-1.34" transform="translate(-302 -402) translate(270 373) translate(33.392 29)"/>
                </g>
            </g>
        </g>
    </g>
</svg>
