<svg xmlns="http://www.w3.org/2000/svg" width="52" height="31" viewBox="0 0 52 31">
    <defs>
        <filter id="pccw9rf16a">
            <feColorMatrix in="SourceGraphic" values="0 0 0 0 0.639679 0 0 0 0 0.651975 0 0 0 0 0.671649 0 0 0 1.000000 0"/>
        </filter>
    </defs>
    <g fill="none" fill-rule="evenodd">
        <g filter="url(#pccw9rf16a)" transform="translate(-818 -182)">
            <g>
                <g fill="#3ABCCA">
                    <path d="M10.358 8.094c-.298-.518-.957-.693-1.474-.395l-.25.144v-.289c0-.596-.483-1.079-1.08-1.079-.596 0-1.079.483-1.079 1.08v.288l-.25-.144c-.515-.294-1.177-.12-1.474.395-.3.516-.122 1.176.394 1.474l.25.145-.25.144c-.516.298-.693.958-.394 1.474.198.346.563.54.934.54.183 0 .369-.046.54-.144l.25-.145v.289c0 .596.483 1.08 1.08 1.08.596 0 1.078-.484 1.078-1.08v-.29l.251.146c.171.098.356.144.54.144.37 0 .735-.194.934-.54.299-.516.122-1.176-.395-1.474l-.25-.144.25-.145c.517-.298.694-.958.395-1.474M18.991 8.094c-.297-.518-.957-.693-1.473-.395l-.251.144v-.289c0-.596-.483-1.079-1.08-1.079-.596 0-1.079.483-1.079 1.08v.288l-.25-.144c-.515-.294-1.176-.12-1.474.395-.299.516-.122 1.176.394 1.474l.25.145-.25.144c-.516.298-.693.958-.394 1.474.198.346.563.54.934.54.183 0 .369-.046.54-.144l.25-.145v.289c0 .596.483 1.08 1.08 1.08.596 0 1.079-.484 1.079-1.08v-.29l.25.146c.171.098.357.144.54.144.371 0 .736-.194.934-.54.3-.516.122-1.176-.394-1.474l-.25-.144.25-.145c.516-.298.693-.958.394-1.474M27.23 9.857l-.25-.144.25-.145c.517-.298.694-.958.394-1.474-.297-.518-.96-.693-1.473-.395l-.25.144v-.289c0-.596-.484-1.079-1.08-1.079-.596 0-1.08.483-1.08 1.08v.288l-.25-.144c-.512-.294-1.176-.12-1.473.395-.3.516-.123 1.176.394 1.474l.25.145-.25.144c-.517.298-.694.958-.394 1.474.198.346.563.54.933.54.184 0 .37-.046.54-.144l.25-.145v.289c0 .596.484 1.08 1.08 1.08.596 0 1.08-.484 1.08-1.08v-.29l.25.146c.17.098.356.144.54.144.37 0 .735-.194.933-.54.3-.516.123-1.176-.394-1.474" transform="translate(774 182) translate(44)"/>
                    <path d="M39.93 28.059c-5.356 0-9.713-4.357-9.713-9.713 0-5.356 4.357-9.713 9.712-9.713 5.356 0 9.713 4.357 9.713 9.713 0 5.356-4.357 9.713-9.713 9.713M2.16 15.109V4.317c0-1.19.967-2.159 2.158-2.159h38.85c1.19 0 2.158.969 2.158 2.159v3.469c-1.62-.832-3.452-1.311-5.396-1.311-1.943 0-3.774.479-5.395 1.31v-.23c0-.597-.483-1.08-1.08-1.08-.596 0-1.079.483-1.079 1.08v.288l-.25-.144c-.517-.294-1.179-.12-1.474.395-.3.516-.122 1.176.394 1.474l.25.145-.25.144c-.435.252-.61.757-.48 1.22-1.356 1.744-2.241 3.869-2.452 6.19H4.317c-1.191 0-2.159-.969-2.159-2.158m45.326-5.913v-4.88c0-2.38-1.937-4.316-4.317-4.316H4.317C1.937 0 0 1.936 0 4.317v10.792c0 2.38 1.937 4.316 4.317 4.316h23.796c.548 6.041 5.636 10.792 11.816 10.792 6.545 0 11.871-5.325 11.871-11.871 0-3.678-1.682-6.97-4.316-9.15" transform="translate(774 182) translate(44)"/>
                    <path d="M44.562 14.345l-6.79 6.792-2.475-2.475c-.422-.421-1.105-.421-1.526 0-.422.422-.422 1.105 0 1.526l3.237 3.238c.211.21.487.316.763.316s.552-.106.763-.316l7.554-7.555c.422-.421.422-1.104 0-1.526-.421-.421-1.104-.421-1.526 0" transform="translate(774 182) translate(44)"/>
                </g>
            </g>
        </g>
    </g>
</svg>
