<?xml version="1.0" encoding="UTF-8"?>
<svg width="40px" height="40px" viewBox="0 0 40 40" version="1.1" xmlns="http://www.w3.org/2000/svg" xmlns:xlink="http://www.w3.org/1999/xlink">
    <title>54629135-A9D8-4538-8E67-C654B6C63467</title>
    <g id="UI---People-Profiler-Admin" stroke="none" stroke-width="1" fill="none" fill-rule="evenodd">
        <g id="6.2---Agency-Admin---Subscription-Cancelled" transform="translate(-433.000000, -211.000000)">
            <g id="Group" transform="translate(433.000000, 190.000000)">
                <g id="Group-6" transform="translate(0.000000, 21.000000)">
                    <circle id="Oval" fill="#3ABCCA" cx="20" cy="20" r="20"></circle>
                    <path d="M19.7142857,30.4285714 C21.6581101,30.4285714 23.4507999,29.9495908 25.0923549,28.9916295 C26.73391,28.0336682 28.0336682,26.73391 28.9916295,25.0923549 C29.9495908,23.4507999 30.4285714,21.6581101 30.4285714,19.7142857 C30.4285714,17.7704613 29.9495908,15.9800967 28.9916295,14.343192 C28.0336682,12.6969866 26.73391,11.3949033 25.0923549,10.436942 C23.4507999,9.47898065 21.6581101,9 19.7142857,9 C17.7704613,9 15.9777716,9.47898065 14.3362165,10.436942 C12.6946615,11.3949033 11.3949033,12.6946615 10.436942,14.3362165 C9.47898065,15.9777716 9,17.7704613 9,19.7142857 C9,21.6581101 9.47898065,23.4507999 10.436942,25.0923549 C11.3949033,26.73391 12.6946615,28.0336682 14.3362165,28.9916295 C15.9777716,29.9495908 17.7704613,30.4285714 19.7142857,30.4285714 Z M21.0535714,14.3571429 L18.375,14.3571429 C18.2447917,14.3571429 18.1378348,14.3152902 18.0541295,14.2315848 C17.9704241,14.1478795 17.9285714,14.0409226 17.9285714,13.9107143 L17.9285714,13.9107143 L17.9285714,11.6785714 C17.9285714,11.5483631 17.9704241,11.4414063 18.0541295,11.3577009 C18.1378348,11.2739955 18.2447917,11.2321429 18.375,11.2321429 L18.375,11.2321429 L21.0535714,11.2321429 C21.1837798,11.2321429 21.2907366,11.2739955 21.374442,11.3577009 C21.4581473,11.4414063 21.5,11.5483631 21.5,11.6785714 L21.5,11.6785714 L21.5,13.9107143 C21.5,14.0409226 21.4581473,14.1478795 21.374442,14.2315848 C21.2907366,14.3152902 21.1837798,14.3571429 21.0535714,14.3571429 L21.0535714,14.3571429 Z M22.8392857,26.8571429 L16.5892857,26.8571429 C16.4590774,26.8571429 16.3521205,26.8152902 16.2684152,26.7315848 C16.1847098,26.6478795 16.1428571,26.5409226 16.1428571,26.4107143 L16.1428571,26.4107143 L16.1428571,24.1785714 C16.1428571,24.0483631 16.1847098,23.9414063 16.2684152,23.8577009 C16.3521205,23.7739955 16.4590774,23.7321429 16.5892857,23.7321429 L16.5892857,23.7321429 L17.9285714,23.7321429 L17.9285714,19.2678571 L16.5892857,19.2678571 C16.4590774,19.2678571 16.3521205,19.2260045 16.2684152,19.1422991 C16.1847098,19.0585938 16.1428571,18.9516369 16.1428571,18.8214286 L16.1428571,18.8214286 L16.1428571,16.5892857 C16.1428571,16.4590774 16.1847098,16.3521205 16.2684152,16.2684152 C16.3521205,16.1847098 16.4590774,16.1428571 16.5892857,16.1428571 L16.5892857,16.1428571 L21.0535714,16.1428571 C21.1837798,16.1428571 21.2907366,16.1847098 21.374442,16.2684152 C21.4581473,16.3521205 21.5,16.4590774 21.5,16.5892857 L21.5,16.5892857 L21.5,23.7321429 L22.8392857,23.7321429 C22.969494,23.7321429 23.0764509,23.7739955 23.1601562,23.8577009 C23.2438616,23.9414063 23.2857143,24.0483631 23.2857143,24.1785714 L23.2857143,24.1785714 L23.2857143,26.4107143 C23.2857143,26.5409226 23.2438616,26.6478795 23.1601562,26.7315848 C23.0764509,26.8152902 22.969494,26.8571429 22.8392857,26.8571429 L22.8392857,26.8571429 Z" id="ïš" fill="#FFFFFF" fill-rule="nonzero"></path>
                </g>
            </g>
        </g>
    </g>
</svg>