<?xml version="1.0" encoding="UTF-8"?>
<svg width="196px" height="70px" viewBox="0 0 196 70" version="1.1" xmlns="http://www.w3.org/2000/svg" xmlns:xlink="http://www.w3.org/1999/xlink">
    <title>9C56DB67-E518-45A9-AD88-CD5A8DCBFC7B</title>
    <g id="UI---People-Profiler-Admin" stroke="none" stroke-width="1" fill="none" fill-rule="evenodd">
        <g id="2.0---Agency-Admin---Create-Account" transform="translate(-209.000000, -39.000000)" fill="#FFFFFF">
            <g id="Group-9" transform="translate(209.000000, 39.000000)">
                <path d="M89.2827016,32.5364078 L89.2827016,26.7843447 L93.076841,26.7843447 C95.0464762,26.7843447 96.7569488,26.4543083 98.208259,25.7942354 C99.6595691,25.1341626 100.779151,24.1964401 101.567005,22.981068 C102.354859,21.7656958 102.748786,20.3302994 102.748786,18.6748786 C102.748786,17.0194579 102.354859,15.5788228 101.567005,14.3529733 C100.779151,13.1271238 99.6595691,12.1841626 98.208259,11.5240898 C96.7569488,10.864017 95.0464762,10.5339806 93.076841,10.5339806 L93.076841,10.5339806 L83.125,10.5339806 L83.125,32.5364078 L89.2827016,32.5364078 Z M93.0351525,21.8325243 L89.6662621,21.8325243 L89.6662621,15.2912621 L93.0351525,15.2912621 C94.2806211,15.2912621 95.2198269,15.5784395 95.8527699,16.1527942 C96.4857129,16.7271489 96.8021845,17.5355 96.8021845,18.5778475 C96.8021845,19.620195 96.4857129,20.423228 95.8527699,20.9869465 C95.2198269,21.550665 94.2806211,21.8325243 93.0351525,21.8325243 L93.0351525,21.8325243 Z M115.097087,32.5364078 C118.274002,32.5364078 120.688039,31.6330906 122.339199,29.8264563 L122.339199,29.8264563 L119.204086,26.6237864 C118.597964,27.1370348 117.997067,27.5065736 117.401396,27.7324029 C116.805724,27.9582322 116.100324,28.0711468 115.285194,28.0711468 C114.198355,28.0711468 113.294397,27.8401851 112.573321,27.3782615 C111.852245,26.916338 111.366303,26.2542476 111.115494,25.3919903 L111.115494,25.3919903 L123.46784,25.3919903 C123.530542,24.4681432 123.561893,23.9856897 123.561893,23.9446299 C123.561893,22.1585255 123.159554,20.6136479 122.354875,19.309997 C121.550196,18.0063461 120.458131,17.0106442 119.078681,16.3228914 C117.699231,15.6351386 116.163026,15.2912621 114.470065,15.2912621 C112.693501,15.2912621 111.094593,15.660801 109.673341,16.3998786 C108.25209,17.1389563 107.139125,18.1603206 106.334446,19.4639715 C105.529767,20.7676224 105.127427,22.2406452 105.127427,23.88304 C105.127427,25.5459648 105.540217,27.0343851 106.365797,28.348301 C107.191377,29.6622168 108.356594,30.6887136 109.861448,31.4277913 C111.366303,32.1668689 113.111516,32.5364078 115.097087,32.5364078 Z M117.615291,22.4271845 L110.479369,22.4271845 C110.650803,21.5106831 111.0526,20.7860076 111.684761,20.2531579 C112.316923,19.7203083 113.104445,19.4538835 114.04733,19.4538835 C114.990215,19.4538835 115.777738,19.7203083 116.409899,20.2531579 C117.04206,20.7860076 117.443858,21.5106831 117.615291,22.4271845 L117.615291,22.4271845 Z M134.265777,32.5364078 C136.08992,32.5364078 137.727502,32.1668689 139.178525,31.4277913 C140.629548,30.6887136 141.759272,29.6622168 142.567699,28.348301 C143.376126,27.0343851 143.78034,25.5459648 143.78034,23.88304 C143.78034,22.2201153 143.376126,20.7368275 142.567699,19.4331766 C141.759272,18.1295257 140.629548,17.1132939 139.178525,16.3844812 C137.727502,15.6556685 136.08992,15.2912621 134.265777,15.2912621 C132.441634,15.2912621 130.809233,15.6556685 129.368575,16.3844812 C127.927917,17.1132939 126.798192,18.1346582 125.979401,19.448574 C125.160609,20.7624899 124.751214,22.2406452 124.751214,23.88304 C124.751214,25.5459648 125.160609,27.0343851 125.979401,28.348301 C126.798192,29.6622168 127.933099,30.6887136 129.384122,31.4277913 C130.835144,32.1668689 132.462363,32.5364078 134.265777,32.5364078 Z M134.265777,27.7791262 C133.222513,27.7791262 132.367037,27.4080398 131.699348,26.665867 C131.03166,25.9236942 130.697816,24.896484 130.697816,23.5842365 C130.697816,22.2935012 131.03166,21.2824252 131.699348,20.5510085 C132.367037,19.8195918 133.222513,19.4538835 134.265777,19.4538835 C135.30904,19.4538835 136.164516,19.8195918 136.832205,20.5510085 C137.499894,21.2824252 137.833738,22.2935012 137.833738,23.5842365 C137.833738,24.896484 137.499894,25.9236942 136.832205,26.665867 C136.164516,27.4080398 135.30904,27.7791262 134.265777,27.7791262 Z M152.710039,38.4830097 L152.710039,30.949583 C153.88042,32.1325178 155.458343,32.7239851 157.443809,32.7239851 C158.990383,32.7239851 160.395884,32.3659917 161.660312,31.6500049 C162.924741,30.934018 163.927924,29.9171092 164.669861,28.5992784 C165.411798,27.2814475 165.782767,25.7508959 165.782767,24.0076236 C165.782767,22.2643513 165.411798,20.7337998 164.669861,19.4159689 C163.927924,18.0981381 162.924741,17.0812292 161.660312,16.3652424 C160.395884,15.6492556 158.990383,15.2912621 157.443809,15.2912621 C155.207547,15.2912621 153.535575,15.9449892 152.427894,17.2524435 L152.427894,17.2524435 L152.427894,15.5714309 L146.753641,15.5714309 L146.753641,38.4830097 L152.710039,38.4830097 Z M156.268204,27.7791262 C155.22494,27.7791262 154.369464,27.4080398 153.701776,26.665867 C153.034087,25.9236942 152.700243,24.9072402 152.700243,23.6165049 C152.700243,22.3257695 153.034087,21.3093155 153.701776,20.5671427 C154.369464,19.8249699 155.22494,19.4538835 156.268204,19.4538835 C157.311467,19.4538835 158.166943,19.8249699 158.834632,20.5671427 C159.502321,21.3093155 159.836165,22.3257695 159.836165,23.6165049 C159.836165,24.9072402 159.502321,25.9236942 158.834632,26.665867 C158.166943,27.4080398 157.311467,27.7791262 156.268204,27.7791262 Z M174.70267,31.9417476 L174.70267,8.75 L168.756068,8.75 L168.756068,31.9417476 L174.70267,31.9417476 Z M187.050971,32.5364078 C190.227886,32.5364078 192.641923,31.6330906 194.293083,29.8264563 L194.293083,29.8264563 L191.157969,26.6237864 C190.551847,27.1370348 189.950951,27.5065736 189.355279,27.7324029 C188.759608,27.9582322 188.054207,28.0711468 187.239078,28.0711468 C186.152238,28.0711468 185.248281,27.8401851 184.527205,27.3782615 C183.806129,26.916338 183.320186,26.2542476 183.069377,25.3919903 L183.069377,25.3919903 L195.421723,25.3919903 C195.484426,24.4681432 195.515777,23.9856897 195.515777,23.9446299 C195.515777,22.1585255 195.113437,20.6136479 194.308758,19.309997 C193.504079,18.0063461 192.412015,17.0106442 191.032565,16.3228914 C189.653115,15.6351386 188.116909,15.2912621 186.423948,15.2912621 C184.647384,15.2912621 183.048476,15.660801 181.627225,16.3998786 C180.205974,17.1389563 179.093008,18.1603206 178.288329,19.4639715 C177.48365,20.7676224 177.081311,22.2406452 177.081311,23.88304 C177.081311,25.5459648 177.494101,27.0343851 178.31968,28.348301 C179.14526,29.6622168 180.310477,30.6887136 181.815332,31.4277913 C183.320186,32.1668689 185.065399,32.5364078 187.050971,32.5364078 Z M190.163835,22.4271845 L183.027913,22.4271845 C183.199346,21.5106831 183.601144,20.7860076 184.233305,20.2531579 C184.865466,19.7203083 185.652989,19.4538835 186.595874,19.4538835 C187.538758,19.4538835 188.326281,19.7203083 188.958443,20.2531579 C189.590604,20.7860076 189.992401,21.5106831 190.163835,22.4271845 L190.163835,22.4271845 Z M86.6430444,70 L86.6430444,63.0535194 L92.5592623,63.0535194 C95.3705147,63.0535194 97.5733618,62.3882079 99.1678035,61.057585 C100.762245,59.726962 101.559466,57.8881877 101.559466,55.5412621 C101.559466,53.1943366 100.762245,51.3503236 99.1678035,50.0092233 C97.5733618,48.668123 95.3705147,47.9975728 92.5592623,47.9975728 L92.5592623,47.9975728 L84.3143204,47.9975728 L84.3143204,70 L86.6430444,70 Z M92.499818,61.0800971 L86.6929612,61.0800971 L86.6929612,50.3762136 L92.499818,50.3762136 C94.6643811,50.3762136 96.3190231,50.8400485 97.4637439,51.7677184 C98.6084648,52.6953883 99.1808252,54.0257282 99.1808252,55.7587379 C99.1808252,57.4509709 98.6084648,58.7609223 97.4637439,59.6885922 C96.3190231,60.6162621 94.6643811,61.0800971 92.499818,61.0800971 L92.499818,61.0800971 Z M108.547284,70 L108.547284,61.5805093 C108.547284,59.6536606 109.039468,58.1561641 110.023837,57.0880198 C111.008205,56.0198754 112.369566,55.4858033 114.107918,55.4858033 L114.107918,55.4858033 L114.64199,55.5172193 L114.64199,53.3495146 C113.113078,53.3495146 111.830257,53.6322587 110.793529,54.1977468 C109.756801,54.763235 108.976636,55.6009953 108.453036,56.7110277 L108.453036,56.7110277 L108.453036,53.4751786 L106.316748,53.4751786 L106.316748,70 L108.547284,70 Z M125.956095,70 C127.532964,70 128.95422,69.6420924 130.219864,68.9262771 C131.485509,68.2104618 132.476239,67.219732 133.192054,65.9540877 C133.907869,64.6884433 134.265777,63.2568128 134.265777,61.6591961 C134.265777,60.0615794 133.907869,58.6299489 133.192054,57.3643045 C132.476239,56.0986601 131.485509,55.1131174 130.219864,54.4076763 C128.95422,53.7022351 127.532964,53.3495146 125.956095,53.3495146 C124.379227,53.3495146 122.95797,53.7022351 121.692326,54.4076763 C120.426682,55.1131174 119.430765,56.0986601 118.704575,57.3643045 C117.978386,58.6299489 117.615291,60.0615794 117.615291,61.6591961 C117.615291,63.2568128 117.978386,64.6884433 118.704575,65.9540877 C119.430765,67.219732 120.426682,68.2104618 121.692326,68.9262771 C122.95797,69.6420924 124.379227,70 125.956095,70 Z M125.659173,68.2160194 C124.466811,68.2160194 123.396879,67.9447964 122.449377,67.4023502 C121.501875,66.8599041 120.756648,66.0887797 120.213698,65.088977 C119.670747,64.0891744 119.399272,62.9511011 119.399272,61.6747573 C119.399272,60.3984135 119.670747,59.2603402 120.213698,58.2605375 C120.756648,57.2607349 121.501875,56.4896105 122.449377,55.9471643 C123.396879,55.4047182 124.466811,55.1334951 125.659173,55.1334951 C126.851535,55.1334951 127.921467,55.4047182 128.868969,55.9471643 C129.816471,56.4896105 130.556375,57.2607349 131.088679,58.2605375 C131.620984,59.2603402 131.887136,60.3984135 131.887136,61.6747573 C131.887136,62.9511011 131.620984,64.0891744 131.088679,65.088977 C130.556375,66.0887797 129.816471,66.8599041 128.868969,67.4023502 C127.921467,67.9447964 126.851535,68.2160194 125.659173,68.2160194 Z M141.257187,70 L141.257187,55.5323235 L146.306815,55.5323235 L146.306815,53.6695325 L141.194066,53.6695325 L141.194066,51.7446485 C141.194066,50.7304623 141.441288,49.9646482 141.93573,49.4472063 C142.430173,48.9297644 143.161317,48.6710434 144.129163,48.6710434 C145.118048,48.6710434 145.938613,48.9401132 146.590857,49.4782528 L146.590857,49.4782528 L147.348301,47.8327875 C146.948539,47.5016246 146.454096,47.2480781 145.864973,47.0721478 C145.275849,46.8962176 144.665686,46.8082524 144.034482,46.8082524 C142.435433,46.8082524 141.199326,47.2429037 140.326161,48.1122061 C139.452996,48.9815086 139.016414,50.1612762 139.016414,51.6515089 L139.016414,51.6515089 L139.016414,53.6695325 L136.049757,53.6695325 L136.049757,55.5323235 L139.016414,55.5323235 L139.016414,70 L141.257187,70 Z M152.997573,49.7815534 C153.416884,49.7815534 153.769487,49.6343603 154.055382,49.339974 C154.341276,49.0455878 154.484223,48.6825115 154.484223,48.250745 C154.484223,47.85823 154.341276,47.5196858 154.055382,47.2351125 C153.769487,46.9505391 153.416884,46.8082524 152.997573,46.8082524 C152.578261,46.8082524 152.225658,46.9554455 151.939764,47.2498318 C151.653869,47.544218 151.510922,47.8876686 151.510922,48.2801836 C151.510922,48.6923243 151.653869,49.0455878 151.939764,49.339974 C152.225658,49.6343603 152.578261,49.7815534 152.997573,49.7815534 Z M153.889563,70 L153.889563,53.3495146 L151.510922,53.3495146 L151.510922,70 L153.889563,70 Z M162.214806,70 L162.214806,46.8082524 L159.836165,46.8082524 L159.836165,70 L162.214806,70 Z M175.627181,70 C176.94426,70 178.151583,69.771769 179.249149,69.3153071 C180.346715,68.8588452 181.261354,68.1949006 181.993065,67.3234734 L181.993065,67.3234734 L180.738703,65.8918428 C180.111522,66.597284 179.369359,67.1315519 178.512212,67.4946466 C177.655065,67.8577413 176.714294,68.0392886 175.689899,68.0392886 C173.871075,68.0392886 172.365841,67.5153949 171.174198,66.4676073 C169.982555,65.4198197 169.324015,64.045247 169.198579,62.3438889 L169.198579,62.3438889 L182.996554,62.3438889 L183.027913,61.6591961 C183.027913,60.0408311 182.682963,58.6040135 181.993065,57.3487433 C181.303166,56.0934731 180.351942,55.1131174 179.139392,54.4076763 C177.926843,53.7022351 176.557499,53.3495146 175.031359,53.3495146 C173.505219,53.3495146 172.130648,53.7022351 170.907646,54.4076763 C169.684644,55.1131174 168.722967,56.0986601 168.022615,57.3643045 C167.322263,58.6299489 166.972087,60.0615794 166.972087,61.6591961 C166.972087,63.2568128 167.337943,64.6884433 168.069654,65.9540877 C168.801364,67.219732 169.820533,68.2104618 171.127159,68.9262771 C172.433786,69.6420924 173.933793,70 175.627181,70 Z M180.649272,61.0800971 L168.756068,61.0800971 C168.904866,59.4898058 169.526629,58.2002427 170.621356,57.2114078 C171.716083,56.2225728 173.071207,55.7281553 174.686727,55.7281553 C176.323504,55.7281553 177.689256,56.2225728 178.783984,57.2114078 C179.878711,58.2002427 180.500474,59.4898058 180.649272,61.0800971 L180.649272,61.0800971 Z M189.421071,70 L189.421071,61.5805093 C189.421071,59.6536606 189.913255,58.1561641 190.897623,57.0880198 C191.881992,56.0198754 193.243352,55.4858033 194.981705,55.4858033 L194.981705,55.4858033 L195.515777,55.5172193 L195.515777,53.3495146 C193.986864,53.3495146 192.704044,53.6322587 191.667315,54.1977468 C190.630587,54.763235 189.850423,55.6009953 189.326823,56.7110277 L189.326823,56.7110277 L189.326823,53.4751786 L187.190534,53.4751786 L187.190534,70 L189.421071,70 Z" id="PeopleProfler" fill-rule="nonzero"></path>
                <g id="Group-23">
                    <path d="M22.4557521,30.0183834 C22.4855201,36.9102869 28.1213646,42.549134 34.9945013,42.5641757 C41.8135898,42.5787855 47.5425174,36.8947105 47.5357674,30.1202869 C47.5288177,23.0788123 41.9113646,17.4210107 34.9490858,17.4429041 C28.061311,17.4647373 22.4262172,23.1371769 22.4557521,30.0183834 M44.3936434,47.6332359 C40.9658954,49.3969357 37.4049035,50.1909571 33.6354129,49.9073914 C27.773992,49.4665603 22.9210965,46.9919759 19.3227587,42.3500188 C10.1204799,30.4783566 16.3596756,13.5762654 31.0600509,10.4046836 C42.2714987,7.9862118 53.6415255,16.2677936 54.8362172,27.6584638 C55.3138311,32.2105282 54.386378,36.4116542 52.0853861,40.3294021 C51.7886836,40.8344155 51.7654129,41.1562654 52.1580134,41.6293753 C57.6683083,48.2677399 63.1568338,54.923933 68.6504263,61.5758097 C70.8382547,64.2247373 70.2604263,67.7979276 67.3919276,69.3630751 C65.2487641,70.5324316 62.6929196,70.0084638 61.0703458,68.0265067 C55.9406408,61.7614129 50.8229464,55.4858097 45.6999973,49.2148981 C45.2865657,48.7089464 44.8676917,48.2071233 44.3936434,47.6332359" id="Fill-1"></path>
                    <path d="M7.44723056,39.9742788 C5.41610456,39.9737158 3.38497855,39.9791582 1.35366488,39.9710885 C0.432592493,39.9675228 0.0139061662,39.520311 0.000394101877,38.5677105 C-0.0423941019,35.5021609 2.47479088,32.8305255 5.79556836,32.5514638 C7.0623244,32.445244 8.36417426,32.4846542 9.6256756,32.6460483 C12.6178472,33.0290777 14.827445,35.531437 14.9368552,38.5114102 C14.9717614,39.4578177 14.5069088,39.9645201 13.5407962,39.9709008 C11.5096702,39.9844129 9.47835657,39.9750295 7.44723056,39.9742788" id="Fill-3"></path>
                    <path d="M62.4602118,39.981992 C60.5244209,39.981992 58.58863,39.9866836 56.6530268,39.9801153 C55.4018472,39.9759866 54.9157882,39.4075416 55.0655469,38.1505442 C55.4339383,35.0566568 57.7762172,32.7560402 60.896941,32.5413485 C62.1030804,32.4582118 63.3330536,32.5006247 64.5361903,32.633681 C67.4818204,32.9590965 69.6782815,35.2456381 69.9682279,38.1747534 C70.0965925,39.4726622 69.6559491,39.9722332 68.3612306,39.9754236 C66.3942869,39.9801153 64.4271555,39.9767373 62.4602118,39.9767373 L62.4602118,39.981992 Z" id="Fill-6"></path>
                    <path d="M12.4173975,25.0418901 C12.4013539,27.8379491 10.114437,30.0413539 7.28046917,29.991059 C4.68784182,29.9450804 2.48668901,27.6305764 2.49268211,24.956689 C2.49851206,22.2407641 4.72030831,20.0463673 7.46231903,20.0482428 C10.2707641,20.0501206 12.4336327,22.230067 12.4173975,25.0418901" id="Fill-9"></path>
                    <path d="M62.4961314,20.0470238 C65.2503405,20.0365523 67.466319,22.2125576 67.4925925,24.9534424 C67.518866,27.6973298 65.2345764,29.993067 62.4914397,29.9801725 C59.7689464,29.9671689 57.5559705,27.7301716 57.5602806,24.9954799 C57.5647909,22.2296354 59.7312252,20.0577587 62.4961314,20.0470238" id="Fill-11"></path>
                    <path d="M47.633555,3.67271046 C47.3559946,4.10359517 47.2051099,4.45153083 46.9572011,4.70431903 C45.4083807,6.28279088 43.8451099,7.84775067 42.2707668,9.40069973 C41.614118,10.0485282 40.8897212,10.0941314 40.3869598,9.53826005 C39.8155121,8.90675871 39.9495067,8.27882306 40.5044397,7.71844772 C42.0823485,6.1247748 43.6416783,4.51027078 45.2830188,2.98415818 C45.6121877,2.67826005 46.3031796,2.57128954 46.7676568,2.66587399 C47.0977641,2.73305898 47.3272815,3.29324665 47.633555,3.67271046" id="Fill-13"></path>
                    <path d="M23.7165818,2.30973727 C24.1386461,2.59123861 24.4815147,2.75075603 24.7358043,3.00054155 C26.3172788,4.55461662 27.8777346,6.13064879 29.4485121,7.69617158 C30.0156434,8.26161394 30.1588338,8.8756622 29.6117828,9.51767292 C29.1422386,10.0690402 28.4000134,10.0617212 27.7934718,9.46643968 C26.1436863,7.8476193 24.4933378,6.22692225 22.9137399,4.54091689 C22.6446247,4.25359786 22.5624263,3.58756568 22.6906032,3.1929008 C22.8050804,2.84064879 23.3297989,2.62201609 23.7165818,2.30973727" id="Fill-15"></path>
                    <path d="M33.7903324,3.72567024 C33.7905201,2.94534853 33.7918338,2.16502681 33.7901448,1.38432976 C33.7882681,0.588431635 34.1024236,0.047386059 34.9638177,0.00215817694 C35.7069812,-0.0368766756 36.1947292,0.461005362 36.207866,1.32483914 C36.2320751,2.91663539 36.2164987,4.50918231 36.208992,6.10116622 C36.2050509,6.88205094 35.7873029,7.33789544 35.025748,7.40714477 C34.3270617,7.47076408 33.8158552,6.89650134 33.7944611,6.06701072 C33.7745684,5.28706434 33.7903324,4.50617962 33.7903324,3.72567024" id="Fill-17"></path>
                    <path d="M34.9460268,39.9808847 C33.0094853,39.9808847 31.0729437,39.9889544 29.1365898,39.9780697 C27.7934531,39.970563 27.3635067,39.4422788 27.565437,38.0927614 C28.0794584,34.6575067 30.5866971,32.4869437 34.0891367,32.5222252 C35.3607721,32.5347989 36.66037,32.558445 37.8961609,32.8193029 C40.453319,33.3592225 42.327555,35.7367828 42.4332118,38.3350402 C42.4820054,39.5347989 42.127689,39.9529223 40.9401287,39.9669973 C38.9424075,39.9904558 36.9439357,39.973378 34.9460268,39.973378 L34.9460268,39.9808847 Z" id="Fill-19"></path>
                    <path d="M30.0415603,24.8881153 C30.0839732,22.1446032 32.2982627,20.0179544 35.079496,20.0502332 C37.8203807,20.0821367 40.0119625,22.3273914 39.9663592,25.0573914 C39.9205684,27.7997775 37.6691206,30.0035576 34.9556354,29.9618954 C32.1438123,29.9191072 29.9983968,27.7036917 30.0415603,24.8881153" id="Fill-21"></path>
                </g>
            </g>
        </g>
    </g>
</svg>