<?xml version="1.0" encoding="UTF-8"?>
<svg width="52px" height="60px" viewBox="0 0 52 60" version="1.1" xmlns="http://www.w3.org/2000/svg" xmlns:xlink="http://www.w3.org/1999/xlink">
    <title>B6AD10EE-BFCA-4940-A82C-C0B13C98C0D4</title>
    <g id="UI---People-Profiler-Admin" stroke="none" stroke-width="1" fill="none" fill-rule="evenodd" fill-opacity="0.15">
        <g id="19.0---Recruiter---Setting-Options" transform="translate(-314.000000, -263.000000)" fill="#3ABCCA" fill-rule="nonzero">
            <path d="M364.943206,315.776172 L361.909306,308.125566 C361.201683,306.346834 360.844727,304.471887 360.844727,302.55502 L360.844727,288.714352 C360.844727,279.113313 354.507869,271.062225 345.861302,268.345942 C345.347266,265.317348 342.742421,263 339.594547,263 C336.446673,263 333.841827,265.317348 333.327945,268.345942 C324.681378,271.062225 318.34452,279.113313 318.34452,288.714352 L318.34452,302.55502 C318.34452,304.471887 317.987564,306.346834 317.279941,308.125566 L314.246041,315.776172 C313.984498,316.437454 314.065492,317.182421 314.459724,317.772547 C314.856104,318.362674 315.513873,318.714275 316.219503,318.714275 L332.373198,318.714275 C333.87987,321.2966 336.567244,323 339.5947,323 C342.622157,323 345.309531,321.2966 346.816203,318.714275 L362.969898,318.714275 C363.675527,318.714275 364.333296,318.362674 364.729676,317.772547 C365.123755,317.182421 365.204595,316.437454 364.943206,315.776172 L364.943206,315.776172 Z M319.357099,314.428395 L321.226863,309.715736 C322.13375,307.430563 322.594403,305.019939 322.594403,302.554711 L322.594403,288.714043 C322.594403,279.259491 330.220722,271.571141 339.594547,271.571141 C348.968372,271.571141 356.594537,279.259491 356.594537,288.714043 L356.594537,302.554711 C356.594537,305.019784 357.05519,307.430563 357.962078,309.715736 L359.831842,314.428395 L319.357099,314.428395 Z" id="Shape"></path>
        </g>
    </g>
</svg>