<?xml version="1.0" encoding="UTF-8"?>
<svg width="39px" height="39px" viewBox="0 0 39 39" version="1.1" xmlns="http://www.w3.org/2000/svg" xmlns:xlink="http://www.w3.org/1999/xlink">
    <title>69528E50-2473-44DA-AD2A-EB15F55A7077</title>
    <g id="UI---People-Profiler-Admin" stroke="none" stroke-width="1" fill="none" fill-rule="evenodd">
        <g id="2.2---Agency-Admin---Create-Password" transform="translate(-843.000000, -178.000000)" fill="#AFB2B6">
            <g id="Group-15" transform="translate(298.000000, 177.000000)">
                <g id="Group-10" transform="translate(495.000000, 1.000000)">
                    <g id="Fill-26" transform="translate(50.000000, 0.000000)">
                        <path d="M2.42814217,36.4221325 L2.42814217,2.42814217 L26.7095638,2.42814217 L26.7095638,10.130715 C26.0531561,9.88921601 25.2761506,9.71256867 24.2683704,9.71256867 C22.0809178,9.71256867 20.9024595,10.4986797 19.9562934,11.1306037 C19.1097824,11.6949444 18.4422456,12.1407108 16.9899131,12.1407108 C15.5386935,12.1407108 14.8711567,11.6949444 14.0246456,11.1306037 C13.0785808,10.4986797 11.9000212,9.71256867 9.71256867,9.71256867 L9.71256867,12.1407108 C11.1637883,12.1407108 11.8312239,12.5863761 12.6778361,13.1507168 C13.623901,13.7826408 14.8024605,14.568853 16.9899131,14.568853 C19.1773657,14.568853 20.3570381,13.7826408 21.303103,13.1507168 C22.1497152,12.5863761 22.8171508,12.1407108 24.2683704,12.1407108 C25.4109125,12.1407108 26.0693437,12.4189355 26.7095638,12.8101699 L26.7095638,19.8432837 C26.0531561,19.6017847 25.2761506,19.4251373 24.2683704,19.4251373 C22.0809178,19.4251373 20.9024595,20.2112484 19.9562934,20.8431724 C19.1097824,21.4075131 18.4422456,21.8532795 16.9899131,21.8532795 C15.5386935,21.8532795 14.8711567,21.4075131 14.0246456,20.8431724 C13.0785808,20.2112484 11.9000212,19.4251373 9.71256867,19.4251373 L9.71256867,21.8532795 C11.1637883,21.8532795 11.8312239,22.2989448 12.6778361,22.8632855 C13.623901,23.4952095 14.8024605,24.2814217 16.9899131,24.2814217 C19.1773657,24.2814217 20.3570381,23.4952095 21.303103,22.8632855 C22.1497152,22.2989448 22.8171508,21.8532795 24.2683704,21.8532795 C25.4109125,21.8532795 26.0693437,22.1315041 26.7095638,22.5227385 L26.7095638,28.3417812 C26.0531561,28.1002823 25.2761506,27.9236349 24.2683704,27.9236349 C22.0809178,27.9236349 20.9024595,28.709746 19.9562934,29.34167 C19.1097824,29.9060107 18.4422456,30.3517771 16.9899131,30.3517771 C15.5386935,30.3517771 14.8711567,29.9060107 14.0246456,29.34167 C13.0785808,28.709746 11.9000212,27.9236349 9.71256867,27.9236349 L9.71256867,30.3517771 C11.1637883,30.3517771 11.8312239,30.7974424 12.6778361,31.3617831 C13.623901,31.9937071 14.8024605,32.7799193 16.9899131,32.7799193 C19.1773657,32.7799193 20.3570381,31.9937071 21.303103,31.3617831 C22.1497152,30.7974424 22.8171508,30.3517771 24.2683704,30.3517771 C25.4109125,30.3517771 26.0693437,30.6300017 26.7095638,31.0212361 L26.7095638,36.4221325 L2.42814217,36.4221325 Z M31.559879,14.568853 C33.7497597,14.568853 34.9294321,13.7826408 35.8779252,13.1507168 C36.7256503,12.5863761 37.3942999,12.1407108 38.8502747,12.1407108 L38.8502747,9.71256867 C36.6602928,9.71256867 35.4796087,10.4986797 34.5311156,11.1306037 C33.6845034,11.6949444 33.0146397,12.1407108 31.559879,12.1407108 C30.4284659,12.1407108 29.7716535,11.8680507 29.137706,11.483089 L29.137706,1.21407108 C29.137706,0.542993292 28.5947127,0 27.9236349,0 L1.21407108,0 C0.542993292,0 0,0.542993292 0,1.21407108 L0,37.6362036 C0,38.3072814 0.542993292,38.8502747 1.21407108,38.8502747 L27.9236349,38.8502747 C28.5947127,38.8502747 29.137706,38.3072814 29.137706,37.6362036 L29.137706,32.3673374 C29.7905727,32.605093 30.5606985,32.7799193 31.559879,32.7799193 C33.7497597,32.7799193 34.9294321,31.9937071 35.8779252,31.3617831 C36.7256503,30.7974424 37.3942999,30.3517771 38.8502747,30.3517771 L38.8502747,27.9236349 C36.6602928,27.9236349 35.4796087,28.709746 34.5311156,29.34167 C33.6845034,29.9060107 33.0146397,30.3517771 31.559879,30.3517771 C30.4284659,30.3517771 29.7716535,30.0795217 29.137706,29.6945599 L29.137706,23.8688399 C29.7905727,24.1065954 30.5606985,24.2814217 31.559879,24.2814217 C33.7497597,24.2814217 34.9294321,23.4952095 35.8779252,22.8632855 C36.7256503,22.2989448 37.3942999,21.8532795 38.8502747,21.8532795 L38.8502747,19.4251373 C36.6602928,19.4251373 35.4796087,20.2112484 34.5311156,20.8431724 C33.6845034,21.4075131 33.0146397,21.8532795 31.559879,21.8532795 C30.4284659,21.8532795 29.7716535,21.5806194 29.137706,21.1960624 L29.137706,14.1562712 C29.7905727,14.3940268 30.5606985,14.568853 31.559879,14.568853 L31.559879,14.568853 Z" id="Fill-20"></path>
                    </g>
                </g>
            </g>
        </g>
    </g>
</svg>