<svg id="svg" version="1.1" xmlns="http://www.w3.org/2000/svg" xmlns:xlink="http://www.w3.org/1999/xlink" width="400" height="400" viewBox="0, 0, 400,400"><g id="svgg"><path id="path0" d="M3.600 3.243 C 3.600 3.486,3.877 3.579,4.215 3.450 C 4.565 3.315,4.928 3.469,5.057 3.804 C 5.182 4.129,5.430 4.305,5.609 4.194 C 5.788 4.084,66.610 3.995,140.767 3.998 C 230.521 4.002,275.600 3.870,275.600 3.603 C 275.600 3.336,230.395 3.168,140.600 3.101 C 55.533 3.037,5.600 3.141,5.600 3.380 C 5.600 3.589,5.384 3.544,5.120 3.280 C 4.518 2.678,3.600 2.655,3.600 3.243 M277.796 3.194 C 277.953 3.447,278.335 3.557,278.646 3.438 C 279.065 3.277,279.165 3.478,279.032 4.210 C 278.934 4.755,279.033 5.200,279.253 5.200 C 280.159 5.200,279.407 3.001,278.456 2.866 C 277.822 2.777,277.605 2.884,277.796 3.194 M2.800 3.953 C 2.800 4.393,2.999 4.876,3.243 5.026 C 3.486 5.177,3.531 5.413,3.343 5.550 C 2.840 5.917,3.101 213.708,3.604 213.398 C 3.870 213.233,4.002 178.317,3.998 109.544 C 3.994 52.561,4.082 5.791,4.193 5.611 C 4.304 5.431,4.129 5.182,3.804 5.057 C 3.479 4.932,3.313 4.572,3.434 4.256 C 3.555 3.940,3.462 3.562,3.227 3.417 C 2.979 3.263,2.800 3.487,2.800 3.953 M6.533 6.200 C 6.570 6.420,6.420 6.570,6.200 6.533 C 5.934 6.489,5.867 41.000,6.000 109.733 L 6.199 213.000 6.400 109.800 L 6.600 6.600 141.200 6.400 L 275.800 6.199 141.133 6.000 C 51.467 5.867,6.489 5.934,6.533 6.200 M278.808 6.209 C 279.221 6.707,279.212 6.779,278.757 6.605 C 278.283 6.423,278.200 14.884,278.200 63.518 C 278.200 117.638,278.237 120.648,278.900 120.698 C 279.564 120.748,279.600 117.762,279.600 63.175 C 279.600 10.333,279.547 5.600,278.951 5.600 C 278.415 5.600,278.390 5.706,278.808 6.209 M81.700 19.100 C 114.425 19.156,167.975 19.156,200.700 19.100 C 233.425 19.044,206.650 18.997,141.200 18.997 C 75.750 18.997,48.975 19.044,81.700 19.100 M81.700 21.500 C 114.425 21.556,167.975 21.556,200.700 21.500 C 233.425 21.444,206.650 21.397,141.200 21.397 C 75.750 21.397,48.975 21.444,81.700 21.500 M261.600 21.900 C 261.600 22.065,207.195 22.155,140.700 22.099 L 19.800 21.999 19.902 110.599 C 19.970 169.597,19.870 199.200,19.603 199.200 C 19.336 199.200,19.168 169.495,19.100 110.700 L 18.998 22.200 18.899 110.857 C 18.820 181.492,18.902 199.551,19.300 199.694 C 19.575 199.793,20.385 199.717,21.100 199.525 L 22.400 199.177 22.400 110.789 L 22.400 22.400 141.200 22.400 L 260.000 22.400 260.047 71.700 C 260.073 98.815,260.069 121.210,260.037 121.467 C 259.994 121.823,260.218 121.823,260.982 121.467 L 261.983 121.000 261.995 71.300 C 262.001 43.965,261.915 21.600,261.803 21.600 C 261.691 21.600,261.600 21.735,261.600 21.900 M262.800 71.480 C 262.690 98.804,262.736 121.024,262.902 120.858 C 263.067 120.693,263.157 98.337,263.102 71.178 L 263.000 21.800 262.800 71.480 M20.700 155.100 C 20.643 179.465,20.596 159.530,20.596 110.800 C 20.596 62.070,20.643 42.135,20.700 66.500 C 20.757 90.865,20.757 130.735,20.700 155.100 M396.754 121.900 C 396.729 122.505,396.744 123.340,396.789 123.756 C 396.840 124.242,396.678 124.439,396.335 124.307 C 395.889 124.136,395.817 140.175,395.902 220.451 C 395.969 284.087,396.139 316.800,396.402 316.800 C 396.651 316.800,396.800 319.352,396.800 323.600 C 396.800 328.770,396.680 330.401,396.300 330.406 C 395.936 330.411,395.925 330.492,396.260 330.706 C 396.512 330.868,396.803 331.450,396.906 332.000 C 397.009 332.550,397.115 285.255,397.143 226.900 C 397.171 168.545,397.105 120.800,396.997 120.800 C 396.889 120.800,396.779 121.295,396.754 121.900 M336.400 123.600 L 279.400 123.804 336.276 123.902 C 373.869 123.967,393.237 123.864,393.400 123.600 C 393.536 123.380,393.592 123.244,393.524 123.298 C 393.456 123.352,367.750 123.488,336.400 123.600 M124.080 124.080 C 123.712 124.448,123.623 133.345,123.697 162.180 L 123.794 199.800 123.997 162.000 L 124.200 124.200 192.200 123.998 L 260.200 123.797 192.380 123.698 C 140.055 123.622,124.450 123.710,124.080 124.080 M136.667 138.267 C 136.030 138.903,136.465 139.600,137.500 139.600 L 138.600 139.600 138.498 228.077 C 138.442 276.953,138.242 316.655,138.052 316.777 C 137.863 316.900,137.573 317.431,137.408 317.958 C 137.146 318.800,137.183 318.848,137.716 318.358 C 138.050 318.051,138.296 317.642,138.262 317.450 C 138.228 317.257,138.450 317.009,138.756 316.898 C 139.061 316.787,139.212 316.857,139.091 317.053 C 138.970 317.248,139.100 317.722,139.380 318.105 C 140.076 319.057,289.486 319.004,289.284 318.053 C 289.200 317.653,289.443 317.574,290.184 317.760 C 290.801 317.915,291.200 317.846,291.200 317.584 C 291.200 317.347,291.372 317.259,291.583 317.389 C 291.793 317.519,291.864 317.890,291.740 318.213 C 291.616 318.536,291.733 318.800,292.000 318.800 C 292.267 318.800,292.393 319.041,292.280 319.336 C 292.167 319.631,292.252 320.126,292.469 320.436 C 292.743 320.827,292.793 320.486,292.631 319.324 C 292.377 317.497,292.859 316.819,293.836 317.630 C 294.317 318.029,294.334 318.194,293.921 318.449 C 293.264 318.855,294.698 320.014,295.483 319.713 C 295.767 319.604,296.000 319.714,296.000 319.957 C 296.000 320.201,295.775 320.403,295.500 320.406 C 295.157 320.410,295.182 320.528,295.581 320.780 C 295.900 320.982,296.291 321.067,296.449 320.970 C 296.607 320.872,297.065 321.211,297.468 321.722 C 297.871 322.233,298.717 322.990,299.348 323.404 C 300.388 324.084,300.426 324.183,299.748 324.450 C 299.337 324.611,299.236 324.756,299.524 324.772 C 299.812 324.787,299.935 324.981,299.798 325.203 C 299.661 325.424,299.849 325.721,300.215 325.861 C 300.581 326.002,301.013 325.902,301.176 325.639 C 301.396 325.282,301.592 325.308,301.952 325.742 C 302.330 326.197,302.322 326.367,301.917 326.530 C 301.588 326.661,301.655 326.748,302.100 326.768 C 302.485 326.786,302.800 326.991,302.800 327.224 C 302.800 327.457,302.935 327.565,303.100 327.466 C 303.491 327.229,304.426 328.240,304.109 328.557 C 303.976 328.691,304.087 328.800,304.357 328.800 C 304.627 328.800,304.736 328.980,304.600 329.200 C 304.464 329.420,304.543 329.600,304.776 329.600 C 305.299 329.600,305.299 329.602,304.761 328.060 C 304.369 326.936,303.991 326.628,303.140 326.739 C 302.997 326.758,302.769 326.329,302.632 325.787 C 302.453 325.074,302.113 324.800,301.405 324.800 C 300.750 324.800,300.493 324.622,300.631 324.264 C 300.825 323.758,300.153 322.908,299.500 322.834 C 299.335 322.815,299.237 322.755,299.282 322.700 C 299.457 322.485,297.798 320.800,297.411 320.800 C 296.922 320.800,294.800 318.223,294.800 317.629 C 294.800 316.849,290.711 316.629,289.200 317.328 C 288.870 317.480,255.163 317.559,214.296 317.503 L 139.993 317.400 139.998 228.386 C 140.003 143.810,139.968 139.369,139.302 139.320 C 137.312 139.174,136.793 138.995,136.978 138.514 C 137.195 137.949,137.078 137.856,136.667 138.267 M199.300 138.700 C 232.025 138.756,285.575 138.756,318.300 138.700 C 351.025 138.644,324.250 138.597,258.800 138.597 C 193.350 138.597,166.575 138.644,199.300 138.700 M380.303 227.728 C 380.373 287.426,380.274 316.800,380.003 316.800 C 379.733 316.800,379.600 287.486,379.600 228.120 C 379.600 169.263,379.466 139.574,379.202 139.838 C 378.403 140.637,378.477 317.600,379.276 317.600 C 379.648 317.600,380.066 317.417,380.204 317.193 C 380.342 316.970,380.623 316.891,380.828 317.017 C 381.057 317.159,381.200 283.219,381.200 228.624 C 381.200 174.483,381.056 140.000,380.829 140.000 C 380.625 140.000,380.400 139.698,380.329 139.328 C 380.258 138.959,380.247 178.739,380.303 227.728 M377.900 139.833 C 377.735 139.998,377.600 180.009,377.600 228.747 C 377.600 287.954,377.733 317.227,378.001 316.959 C 378.267 316.693,378.368 286.787,378.301 228.046 C 378.245 179.364,378.065 139.668,377.900 139.833 M121.200 199.536 C 121.200 199.894,109.335 200.005,71.700 200.000 C 44.475 199.997,21.964 199.995,21.676 199.997 C 21.388 199.999,21.262 200.177,21.396 200.394 C 21.851 201.130,120.593 200.932,121.206 200.193 C 121.485 199.856,121.598 199.465,121.457 199.324 C 121.316 199.182,121.200 199.278,121.200 199.536 M6.741 214.901 C 6.907 215.067,32.683 215.157,64.021 215.101 L 121.000 215.000 63.720 214.800 C 32.216 214.690,6.576 214.736,6.741 214.901 M4.200 216.400 L 3.000 216.705 4.076 216.753 C 4.668 216.779,5.264 216.620,5.400 216.400 C 5.536 216.180,5.592 216.021,5.524 216.047 C 5.456 216.073,4.860 216.232,4.200 216.400 M34.700 216.700 C 50.595 216.758,76.605 216.758,92.500 216.700 C 108.395 216.642,95.390 216.595,63.600 216.595 C 31.810 216.595,18.805 216.642,34.700 216.700 M123.795 273.600 C 123.795 304.950,123.842 317.775,123.900 302.100 C 123.958 286.425,123.958 260.775,123.900 245.100 C 123.842 229.425,123.795 242.250,123.795 273.600 M340.400 317.225 C 340.400 317.680,341.475 317.727,341.749 317.283 C 341.856 317.109,341.597 316.940,341.172 316.908 C 340.748 316.876,340.400 317.019,340.400 317.225 M342.526 317.351 C 342.642 317.654,342.527 318.141,342.269 318.432 C 341.886 318.864,341.917 318.873,342.437 318.484 C 342.787 318.222,343.180 318.113,343.310 318.243 C 343.440 318.373,343.447 318.101,343.326 317.640 C 343.205 317.178,342.928 316.800,342.711 316.800 C 342.493 316.800,342.410 317.048,342.526 317.351 M393.926 323.650 C 393.817 329.737,393.882 330.689,394.400 330.613 C 395.283 330.483,395.488 319.293,394.637 317.696 C 394.102 316.692,394.042 317.193,393.926 323.650 M214.821 318.301 C 173.803 318.357,140.107 318.267,139.941 318.101 C 139.775 317.935,173.336 317.890,214.520 318.000 L 289.400 318.200 214.821 318.301 M352.300 317.900 C 356.975 317.964,364.625 317.964,369.300 317.900 C 373.975 317.836,370.150 317.783,360.800 317.783 C 351.450 317.783,347.625 317.836,352.300 317.900 M352.527 318.700 C 357.327 318.764,365.067 318.763,369.727 318.699 C 374.387 318.636,370.460 318.583,361.000 318.583 C 351.540 318.583,347.727 318.636,352.527 318.700 M342.965 325.800 C 342.966 329.760,343.026 331.326,343.098 329.280 C 343.171 327.234,343.171 323.994,343.098 322.080 C 343.024 320.166,342.965 321.840,342.965 325.800 M294.500 321.612 C 294.005 321.811,293.600 322.081,293.600 322.211 C 293.600 322.341,293.765 322.345,293.966 322.221 C 294.167 322.097,294.393 322.178,294.467 322.401 C 294.542 322.625,294.829 322.446,295.105 322.004 C 295.381 321.562,295.560 321.211,295.503 321.225 C 295.447 321.239,294.995 321.413,294.500 321.612 M296.485 324.258 C 295.195 325.729,295.619 325.841,297.004 324.396 C 297.634 323.738,297.981 323.203,297.775 323.207 C 297.569 323.211,296.988 323.684,296.485 324.258 M305.981 330.420 C 305.542 330.698,305.529 330.789,305.927 330.794 C 306.271 330.798,306.366 331.077,306.201 331.597 C 306.006 332.210,306.093 332.339,306.574 332.155 C 307.225 331.905,307.437 330.594,306.881 330.250 C 306.705 330.142,306.300 330.218,305.981 330.420 M307.600 330.910 C 307.600 331.263,307.792 331.672,308.027 331.817 C 308.262 331.962,308.354 332.342,308.232 332.661 C 308.090 333.032,308.177 333.138,308.473 332.955 C 308.782 332.764,308.851 332.890,308.681 333.334 C 308.540 333.700,308.599 334.000,308.813 334.000 C 309.026 334.000,309.200 333.809,309.200 333.576 C 309.200 333.343,309.392 333.272,309.627 333.417 C 309.862 333.562,309.959 333.931,309.842 334.236 C 309.725 334.541,309.839 334.748,310.096 334.695 C 310.353 334.643,310.576 334.870,310.591 335.200 C 310.607 335.566,310.918 335.747,311.387 335.664 C 312.033 335.551,312.076 335.627,311.656 336.133 C 311.235 336.640,311.274 336.706,311.893 336.544 C 312.542 336.374,314.385 337.792,314.100 338.242 C 314.045 338.329,314.003 338.625,314.006 338.900 C 314.011 339.260,314.110 339.245,314.363 338.846 C 314.643 338.403,314.806 338.464,315.171 339.146 C 315.422 339.616,315.510 340.000,315.365 340.000 C 315.220 340.000,315.321 340.264,315.589 340.587 C 315.857 340.910,316.194 341.159,316.338 341.140 C 317.075 341.042,317.600 341.246,317.600 341.629 C 317.600 342.182,318.404 342.971,319.325 343.320 C 319.760 343.484,319.937 343.796,319.767 344.097 C 319.544 344.492,319.595 344.496,320.004 344.117 C 320.604 343.562,319.894 342.355,319.062 342.513 C 318.808 342.561,318.634 342.407,318.676 342.171 C 318.718 341.935,318.369 341.485,317.901 341.171 C 316.678 340.350,314.404 337.877,314.402 337.364 C 314.401 337.125,313.950 336.723,313.400 336.473 C 312.850 336.222,312.400 335.772,312.400 335.473 C 312.400 335.173,311.950 334.723,311.400 334.473 C 310.850 334.222,310.400 333.743,310.400 333.409 C 310.400 333.074,310.158 332.800,309.862 332.800 C 309.284 332.800,308.054 331.616,308.062 331.067 C 308.064 330.883,307.962 330.628,307.833 330.500 C 307.705 330.372,307.600 330.556,307.600 330.910 M306.300 332.676 C 305.915 332.776,305.600 333.032,305.600 333.243 C 305.600 333.484,305.879 333.479,306.347 333.228 C 306.758 333.008,307.237 332.957,307.412 333.114 C 307.586 333.271,307.599 333.175,307.441 332.900 C 307.282 332.625,307.118 332.421,307.076 332.446 C 307.034 332.472,306.685 332.575,306.300 332.676 M164.132 333.100 C 186.094 333.157,221.914 333.157,243.732 333.100 C 265.549 333.043,247.580 332.996,203.800 332.996 C 160.020 332.996,142.169 333.043,164.132 333.100 M376.600 333.200 L 393.400 333.413 376.600 333.554 C 367.360 333.631,359.669 333.675,359.510 333.651 C 359.350 333.626,359.213 346.946,359.205 363.249 C 359.197 379.553,359.092 393.051,358.972 393.246 C 358.851 393.441,358.938 393.600,359.164 393.600 C 359.390 393.600,359.472 393.869,359.346 394.198 C 359.219 394.526,358.955 394.696,358.758 394.574 C 358.561 394.452,358.400 394.554,358.400 394.800 C 358.400 395.046,358.192 395.119,357.938 394.962 C 357.650 394.784,357.585 394.852,357.766 395.145 C 357.925 395.402,358.223 395.509,358.428 395.383 C 358.632 395.256,358.800 395.313,358.800 395.510 C 358.800 396.186,358.293 396.371,357.542 395.969 C 357.000 395.679,356.818 395.697,356.894 396.033 C 356.952 396.290,356.775 396.583,356.500 396.683 C 356.225 396.784,356.000 396.660,356.000 396.408 C 356.000 396.084,354.604 395.975,351.237 396.038 C 347.644 396.105,346.521 396.249,346.664 396.622 C 346.881 397.187,356.050 397.398,358.333 396.891 L 359.667 396.595 359.733 365.397 L 359.800 334.200 377.072 334.200 C 393.496 334.200,394.312 334.166,393.710 333.500 C 393.123 332.852,391.846 332.807,376.438 332.893 L 359.800 332.987 376.600 333.200 M121.067 333.467 C 120.920 333.613,120.800 333.838,120.800 333.967 C 120.800 334.095,157.271 334.151,201.848 334.091 C 285.779 333.977,284.148 333.947,283.712 335.615 C 283.548 336.244,283.710 336.400,284.530 336.400 C 285.092 336.400,285.664 336.580,285.800 336.800 C 285.936 337.020,285.857 337.200,285.624 337.200 C 284.800 337.200,285.213 337.988,286.162 338.226 C 286.691 338.359,287.224 338.850,287.346 339.316 C 287.468 339.783,287.658 340.075,287.768 339.965 C 288.191 339.543,287.478 338.015,286.751 337.784 C 286.332 337.651,286.088 337.381,286.210 337.184 C 286.331 336.987,286.064 336.597,285.616 336.317 C 285.167 336.037,284.794 335.626,284.787 335.404 C 284.728 333.499,288.966 333.588,203.422 333.698 C 150.676 333.766,123.998 333.666,123.994 333.400 C 123.991 333.180,123.832 333.245,123.642 333.545 C 123.351 334.006,123.263 334.006,123.080 333.545 C 122.926 333.158,122.854 333.145,122.832 333.500 C 122.814 333.775,122.429 334.000,121.976 334.000 C 121.523 334.000,121.264 333.820,121.400 333.600 C 121.680 333.147,121.470 333.063,121.067 333.467 M396.217 333.572 C 395.944 334.014,396.575 334.492,396.944 334.122 C 397.325 333.742,397.254 333.200,396.824 333.200 C 396.617 333.200,396.344 333.368,396.217 333.572 M356.500 334.265 C 355.862 334.523,355.757 393.200,356.395 393.200 C 356.650 393.200,356.827 382.742,356.895 363.600 C 356.953 347.320,357.000 334.014,357.000 334.032 C 357.000 334.049,356.775 334.154,356.500 334.265 M340.400 349.187 C 340.400 362.168,340.473 363.947,341.000 363.745 C 341.518 363.546,341.600 361.528,341.600 348.957 C 341.600 336.284,341.522 334.400,341.000 334.400 C 340.477 334.400,340.400 336.310,340.400 349.187 M306.800 335.224 C 306.800 335.457,306.968 335.544,307.172 335.417 C 307.377 335.291,307.660 335.373,307.800 335.600 C 307.940 335.827,308.226 335.908,308.434 335.779 C 308.643 335.650,308.709 335.377,308.583 335.172 C 308.266 334.659,306.800 334.702,306.800 335.224 M308.800 336.911 C 308.800 337.645,310.351 338.232,310.525 337.564 C 310.681 336.968,310.513 336.800,309.763 336.800 C 309.233 336.800,308.800 336.850,308.800 336.911 M311.880 338.936 C 311.767 339.231,311.835 339.726,312.031 340.036 C 312.291 340.447,312.389 340.301,312.394 339.500 C 312.401 338.306,312.204 338.090,311.880 338.936 M289.200 340.963 C 289.200 342.156,290.385 342.344,290.697 341.200 C 290.843 340.667,290.814 340.667,290.437 341.200 C 290.036 341.766,289.972 341.726,289.850 340.833 C 289.721 339.888,289.200 339.992,289.200 340.963 M314.100 341.212 C 313.605 341.411,313.200 341.681,313.200 341.811 C 313.200 341.941,313.365 341.945,313.566 341.821 C 313.767 341.697,314.007 341.821,314.099 342.096 C 314.203 342.408,314.448 342.257,314.747 341.699 C 315.012 341.205,315.177 340.811,315.114 340.825 C 315.051 340.839,314.595 341.013,314.100 341.212 M291.290 343.022 C 291.245 343.560,291.381 344.000,291.592 344.000 C 291.803 344.000,291.871 343.728,291.743 343.395 C 291.569 342.942,291.697 342.858,292.255 343.059 C 293.032 343.339,293.002 343.278,291.985 342.509 C 291.476 342.123,291.357 342.211,291.290 343.022 M316.966 345.300 C 316.550 345.795,316.365 346.071,316.557 345.914 C 316.748 345.757,317.231 345.802,317.628 346.015 C 318.104 346.270,318.438 346.262,318.605 345.991 C 318.745 345.765,318.711 345.606,318.530 345.637 C 317.454 345.824,317.111 345.589,317.600 345.000 C 317.874 344.670,318.014 344.400,317.911 344.400 C 317.808 344.400,317.383 344.805,316.966 345.300 M320.667 344.667 C 320.248 345.085,320.355 345.675,320.800 345.400 C 321.020 345.264,321.413 345.284,321.673 345.445 C 321.999 345.647,321.905 345.833,321.373 346.041 C 320.732 346.292,320.715 346.349,321.276 346.372 C 322.202 346.410,322.571 345.688,321.985 344.982 C 321.457 344.346,321.078 344.255,320.667 344.667 M322.663 346.270 C 322.271 346.663,322.345 347.281,322.755 347.028 C 322.950 346.907,323.317 347.059,323.571 347.366 C 323.924 347.791,323.911 347.971,323.517 348.130 C 323.183 348.263,323.244 348.348,323.687 348.368 C 324.164 348.390,324.299 348.614,324.129 349.100 C 323.944 349.624,324.002 349.691,324.356 349.365 C 324.682 349.066,324.713 348.624,324.457 347.949 C 324.022 346.806,323.043 345.890,322.663 346.270 M295.200 346.987 C 295.200 347.344,295.435 347.485,295.798 347.346 C 296.126 347.219,296.296 346.955,296.174 346.758 C 295.825 346.193,295.200 346.340,295.200 346.987 M297.323 348.967 C 297.376 349.499,297.767 349.775,298.600 349.870 C 299.593 349.982,299.678 349.933,299.097 349.581 C 298.710 349.348,298.229 349.259,298.027 349.383 C 297.825 349.508,297.567 349.293,297.453 348.905 C 297.278 348.310,297.258 348.320,297.323 348.967 M325.200 348.776 C 325.200 348.983,325.380 349.264,325.600 349.400 C 326.250 349.802,326.058 351.142,325.231 351.969 C 324.608 352.592,324.570 352.780,325.031 352.957 C 325.344 353.077,325.600 352.990,325.600 352.764 C 325.600 352.538,325.778 352.463,325.995 352.597 C 326.223 352.738,326.289 352.576,326.151 352.216 C 326.019 351.871,326.123 351.334,326.382 351.022 C 326.750 350.578,326.706 350.228,326.181 349.427 C 325.468 348.339,325.200 348.161,325.200 348.776 M327.206 350.476 C 327.203 350.848,327.372 351.259,327.583 351.389 C 327.793 351.519,327.852 351.919,327.715 352.278 C 327.537 352.740,327.614 352.839,327.975 352.616 C 328.357 352.379,328.420 352.539,328.224 353.250 C 328.000 354.062,328.026 354.097,328.405 353.492 C 328.917 352.675,329.676 352.936,329.340 353.813 C 329.200 354.176,329.355 354.400,329.745 354.400 C 330.141 354.400,330.289 354.623,330.145 355.000 C 330.018 355.330,330.114 355.600,330.357 355.600 C 330.601 355.600,330.800 355.409,330.800 355.176 C 330.800 354.943,330.992 354.871,331.227 355.016 C 331.461 355.161,331.552 355.381,331.429 355.504 C 331.306 355.628,331.609 355.935,332.102 356.188 C 332.596 356.440,332.984 356.906,332.964 357.223 C 332.944 357.541,333.270 358.158,333.688 358.595 C 334.447 359.389,334.447 359.389,334.149 358.595 C 333.881 357.882,333.921 357.858,334.543 358.364 C 334.925 358.674,335.146 359.164,335.036 359.451 C 334.925 359.739,335.052 360.112,335.317 360.281 C 335.792 360.583,336.007 360.651,336.800 360.750 C 337.020 360.778,337.200 361.001,337.200 361.247 C 337.200 361.876,339.770 364.057,339.938 363.572 C 340.126 363.028,339.231 362.005,338.662 362.113 C 338.408 362.161,338.249 361.962,338.310 361.670 C 338.370 361.379,338.235 361.255,338.010 361.394 C 337.784 361.533,337.600 361.367,337.600 361.024 C 337.600 360.681,337.441 360.400,337.246 360.400 C 336.739 360.400,334.000 357.511,334.000 356.976 C 334.000 356.730,333.550 356.323,333.000 356.073 C 332.450 355.822,332.000 355.372,332.000 355.073 C 332.000 354.773,331.550 354.323,331.000 354.073 C 330.450 353.822,330.000 353.386,330.000 353.103 C 330.000 352.821,329.598 352.412,329.107 352.195 C 328.616 351.978,327.989 351.350,327.713 350.800 C 327.367 350.109,327.210 350.009,327.206 350.476 M300.241 351.533 C 300.113 351.740,300.377 352.005,300.827 352.123 C 301.326 352.253,301.588 352.164,301.498 351.894 C 301.297 351.292,300.527 351.071,300.241 351.533 M301.200 353.405 C 301.200 353.677,301.725 354.005,302.367 354.133 C 303.269 354.314,303.489 354.539,303.335 355.127 C 303.178 355.725,303.409 355.942,304.417 356.143 C 305.455 356.351,305.610 356.505,305.236 356.956 C 304.865 357.403,305.014 357.596,305.993 357.938 C 306.664 358.171,307.165 358.590,307.106 358.867 C 307.048 359.144,307.405 359.555,307.900 359.780 C 308.395 360.005,308.800 360.520,308.800 360.924 C 308.800 361.807,310.051 361.703,310.297 360.800 C 310.443 360.267,310.414 360.267,310.037 360.800 C 309.622 361.386,309.553 361.326,309.450 360.300 C 309.423 360.025,308.995 359.742,308.500 359.672 C 307.918 359.589,307.600 359.269,307.600 358.764 C 307.600 358.322,307.172 357.788,306.613 357.533 C 306.069 357.285,305.697 356.967,305.784 356.826 C 305.871 356.685,305.326 355.966,304.571 355.228 C 303.817 354.491,303.200 353.754,303.200 353.590 C 303.200 353.427,302.750 353.207,302.200 353.102 C 301.569 352.982,301.200 353.094,301.200 353.405 M326.400 354.824 C 326.400 355.057,326.568 355.144,326.772 355.017 C 326.977 354.891,327.260 354.973,327.400 355.200 C 327.540 355.427,327.826 355.508,328.034 355.379 C 328.243 355.250,328.309 354.977,328.183 354.772 C 327.866 354.259,326.400 354.302,326.400 354.824 M329.095 356.357 C 328.433 356.598,328.437 356.654,329.158 357.271 C 329.875 357.885,329.939 357.878,330.125 357.165 C 330.363 356.253,330.051 356.009,329.095 356.357 M331.600 358.424 C 331.600 358.657,331.420 358.736,331.200 358.600 C 330.980 358.464,330.800 358.543,330.800 358.776 C 330.800 359.009,330.991 359.200,331.224 359.200 C 331.457 359.200,331.536 359.380,331.400 359.600 C 331.264 359.820,331.343 360.000,331.576 360.000 C 331.809 360.000,332.000 359.550,332.000 359.000 C 332.000 358.450,331.910 358.000,331.800 358.000 C 331.690 358.000,331.600 358.191,331.600 358.424 M332.962 361.262 C 332.785 361.548,332.852 361.615,333.138 361.438 C 333.392 361.281,333.600 361.354,333.600 361.600 C 333.600 361.846,333.780 361.936,334.000 361.800 C 334.220 361.664,334.400 361.383,334.400 361.176 C 334.400 360.643,333.304 360.708,332.962 361.262 M336.597 364.330 C 336.745 364.479,337.062 364.600,337.300 364.600 C 337.538 364.600,337.808 364.825,337.900 365.100 C 338.010 365.429,337.816 365.519,337.333 365.363 C 336.731 365.167,336.706 365.199,337.197 365.546 C 337.986 366.102,338.753 365.393,338.084 364.724 C 337.822 364.462,337.320 364.206,336.967 364.154 C 336.615 364.102,336.448 364.182,336.597 364.330 M314.715 366.400 C 314.829 367.176,315.122 367.598,315.545 367.594 C 316.114 367.589,316.121 367.537,315.600 367.200 C 315.195 366.938,315.163 366.810,315.503 366.806 C 315.907 366.801,315.907 366.641,315.507 366.000 C 314.798 364.864,314.510 365.009,314.715 366.400 M316.969 368.671 C 317.029 369.075,317.525 369.403,318.220 369.496 L 319.372 369.650 318.323 368.825 C 317.051 367.825,316.842 367.801,316.969 368.671 M318.806 370.900 C 318.802 371.415,319.123 371.600,320.024 371.600 C 320.790 371.600,321.148 371.440,320.983 371.173 C 320.838 370.938,320.437 370.854,320.092 370.986 C 319.746 371.119,319.317 370.996,319.138 370.714 C 318.898 370.336,318.811 370.385,318.806 370.900 M320.800 373.287 C 320.800 373.459,321.250 373.600,321.800 373.600 C 322.350 373.600,322.800 373.422,322.800 373.204 C 322.800 372.987,322.350 372.846,321.800 372.892 C 321.250 372.937,320.800 373.115,320.800 373.287 M322.640 374.960 C 322.756 375.263,323.376 375.615,324.017 375.743 C 324.875 375.915,325.119 376.145,324.940 376.612 C 324.777 377.037,324.966 377.318,325.511 377.461 C 325.959 377.578,326.419 378.031,326.533 378.467 C 326.647 378.903,327.097 379.353,327.533 379.467 C 327.969 379.581,328.416 380.017,328.526 380.437 C 328.729 381.215,330.000 381.528,330.000 380.800 C 330.000 380.580,329.775 380.445,329.500 380.500 C 329.225 380.555,329.046 380.372,329.102 380.093 C 329.159 379.813,328.754 379.380,328.202 379.128 C 327.651 378.877,327.200 378.425,327.200 378.123 C 327.200 377.822,326.931 377.472,326.602 377.346 C 326.274 377.219,326.103 376.957,326.223 376.763 C 326.343 376.568,326.133 376.528,325.755 376.673 C 325.330 376.836,325.166 376.778,325.325 376.521 C 325.466 376.293,325.217 375.778,324.773 375.375 C 323.759 374.458,322.341 374.182,322.640 374.960 M330.432 382.100 C 330.403 383.091,330.528 383.195,331.700 383.146 C 332.748 383.102,332.813 383.056,332.035 382.909 C 331.289 382.768,331.198 382.646,331.635 382.370 C 332.098 382.077,332.080 382.011,331.533 382.006 C 331.167 382.003,330.776 381.775,330.665 381.500 C 330.554 381.225,330.449 381.495,330.432 382.100 M334.413 385.900 C 334.403 386.879,334.573 387.198,335.100 387.194 C 335.648 387.189,335.681 387.113,335.255 386.842 C 334.879 386.604,334.852 386.449,335.169 386.344 C 335.489 386.237,335.446 385.950,335.027 385.395 C 334.452 384.635,334.425 384.656,334.413 385.900 M336.302 387.400 C 336.533 387.840,336.754 388.380,336.794 388.600 C 336.834 388.820,336.971 389.090,337.097 389.200 C 337.224 389.310,337.208 389.190,337.062 388.934 C 336.915 388.678,336.990 388.403,337.228 388.324 C 337.466 388.245,337.261 387.824,336.772 387.390 C 335.887 386.603,335.885 386.603,336.302 387.400 M338.526 390.200 C 338.584 390.773,338.946 391.033,339.803 391.115 C 340.661 391.197,340.840 391.122,340.436 390.852 C 340.126 390.644,339.647 390.561,339.371 390.666 C 339.096 390.772,338.775 390.531,338.658 390.129 C 338.478 389.511,338.458 389.522,338.526 390.200 M342.292 394.432 C 342.440 394.995,342.744 395.203,343.233 395.076 C 343.772 394.934,344.020 395.180,344.210 396.043 C 344.414 396.973,344.673 397.197,345.532 397.184 L 346.600 397.168 345.500 396.571 C 344.288 395.914,344.015 395.478,345.069 395.882 C 345.537 396.061,345.464 395.864,344.828 395.228 C 344.327 394.727,343.711 394.286,343.459 394.247 C 343.206 394.209,342.792 394.047,342.537 393.888 C 342.222 393.691,342.144 393.865,342.292 394.432 M356.177 394.327 C 356.228 394.673,356.524 395.025,356.835 395.109 C 357.316 395.238,357.317 395.203,356.842 394.871 C 356.388 394.554,356.425 394.452,357.042 394.324 C 357.735 394.181,357.727 394.147,356.943 393.932 C 356.311 393.759,356.109 393.863,356.177 394.327 " stroke="none" fill="#c4c4c4" fill-rule="evenodd"></path><path id="path1" d="M140.577 3.100 C 247.789 3.180,275.418 3.303,275.671 3.701 C 275.897 4.056,275.990 3.999,275.994 3.500 C 276.000 2.835,269.340 2.805,140.900 2.899 L 5.800 2.999 140.577 3.100 M2.901 111.500 C 2.835 184.659,2.933 216.400,3.227 216.400 C 3.458 216.400,3.536 216.220,3.400 216.000 C 3.264 215.780,3.388 215.597,3.676 215.594 C 4.057 215.589,4.037 215.484,3.602 215.210 C 3.089 214.885,3.117 214.746,3.802 214.229 C 4.514 213.691,4.525 213.624,3.901 213.613 C 3.237 213.601,3.196 208.317,3.099 110.100 L 2.997 6.600 2.901 111.500 M20.332 20.000 C 19.838 21.469,21.722 23.191,22.267 21.769 C 22.607 20.883,260.000 20.914,260.000 21.800 C 260.000 22.151,260.364 22.400,260.876 22.400 C 261.732 22.400,261.735 22.386,260.976 21.820 C 260.238 21.268,260.248 21.251,261.200 21.479 C 261.750 21.610,262.067 21.573,261.903 21.396 C 261.740 21.219,261.830 20.797,262.103 20.460 C 262.508 19.961,262.499 19.907,262.055 20.174 C 261.720 20.376,261.376 20.290,261.161 19.951 C 260.910 19.554,260.811 19.539,260.806 19.899 C 260.797 20.632,20.944 20.632,20.700 19.899 C 20.582 19.545,20.475 19.575,20.332 20.000 M122.400 120.700 C 122.400 120.971,169.519 120.970,235.400 120.697 C 249.040 120.640,229.195 120.550,191.300 120.497 C 153.405 120.444,122.400 120.535,122.400 120.700 M337.097 120.700 C 399.522 120.811,395.529 120.677,394.315 122.619 C 394.171 122.850,394.238 123.300,394.464 123.619 C 394.805 124.100,394.839 124.085,394.662 123.529 C 394.544 123.160,394.705 122.645,395.019 122.384 C 395.334 122.123,395.493 121.750,395.372 121.555 C 395.251 121.360,395.568 121.182,396.076 121.160 C 396.988 121.121,396.987 121.116,396.000 120.800 C 395.450 120.624,368.990 120.506,337.200 120.539 L 279.400 120.597 337.097 120.700 M120.495 160.900 C 120.547 182.075,120.636 193.190,120.694 185.600 C 120.969 149.391,120.972 122.400,120.700 122.400 C 120.535 122.400,120.443 139.725,120.495 160.900 M377.987 137.617 C 377.630 137.843,330.489 137.990,257.513 137.994 C 151.317 137.999,137.651 138.068,137.854 138.598 C 137.981 138.926,138.233 139.104,138.414 138.991 C 138.596 138.879,138.860 138.973,139.000 139.200 C 139.140 139.427,139.423 139.509,139.628 139.383 C 139.832 139.256,140.000 139.344,140.000 139.577 C 140.000 139.875,175.361 139.971,259.100 139.901 C 344.338 139.829,378.178 139.677,378.122 139.367 C 378.079 139.128,378.297 138.933,378.605 138.933 C 378.914 138.933,379.038 139.127,378.882 139.367 C 378.501 139.952,378.120 317.173,378.500 316.938 C 378.665 316.836,378.800 277.019,378.800 228.456 C 378.800 177.598,378.951 139.999,379.155 139.780 C 379.603 139.301,380.211 137.295,379.786 137.697 C 379.614 137.860,379.271 137.825,379.023 137.619 C 378.746 137.389,378.348 137.388,377.987 137.617 M318.332 138.700 C 285.625 138.756,231.985 138.756,199.132 138.700 C 166.280 138.644,193.040 138.597,258.600 138.597 C 324.160 138.597,351.040 138.644,318.332 138.700 M120.495 274.676 C 120.443 306.618,120.535 332.836,120.700 332.938 C 120.969 333.105,120.966 275.769,120.695 233.000 C 120.638 223.980,120.548 242.734,120.495 274.676 M292.910 317.995 C 292.877 318.431,293.393 319.331,294.056 319.995 C 295.234 321.172,295.873 321.566,295.421 320.834 C 295.297 320.633,295.396 320.401,295.641 320.320 C 295.911 320.230,295.802 319.939,295.367 319.585 C 294.933 319.233,294.766 319.199,294.947 319.500 C 295.391 320.240,294.586 320.107,293.949 319.335 C 293.524 318.820,293.512 318.632,293.896 318.503 C 294.275 318.375,294.258 318.201,293.825 317.768 C 293.081 317.024,292.982 317.049,292.910 317.995 M296.206 319.753 C 297.043 321.031,297.283 321.093,296.849 319.921 C 296.670 319.437,296.298 318.966,296.022 318.874 C 295.700 318.767,295.766 319.082,296.206 319.753 M340.474 326.500 C 340.433 330.845,340.535 334.400,340.700 334.401 C 340.865 334.401,340.952 331.746,340.893 328.501 C 340.719 318.866,340.553 318.075,340.474 326.500 M341.366 326.000 C 341.366 330.070,341.425 331.735,341.498 329.700 C 341.571 327.665,341.571 324.335,341.498 322.300 C 341.425 320.265,341.366 321.930,341.366 326.000 M296.428 321.486 C 296.529 322.609,297.014 323.101,297.502 322.573 C 297.909 322.132,297.853 321.949,297.202 321.601 C 296.761 321.365,296.413 321.313,296.428 321.486 M298.986 322.743 C 299.226 323.158,299.077 323.229,298.350 323.047 C 297.828 322.915,297.625 322.911,297.900 323.037 C 298.175 323.163,298.400 323.442,298.400 323.657 C 298.400 323.872,298.222 323.937,298.005 323.803 C 297.782 323.665,297.708 323.817,297.836 324.149 C 297.983 324.531,298.544 324.714,299.433 324.669 C 300.656 324.608,300.728 324.544,300.102 324.083 C 299.716 323.798,299.400 323.408,299.400 323.216 C 299.400 323.024,299.236 322.717,299.036 322.533 C 298.821 322.337,298.801 322.423,298.986 322.743 M301.031 325.863 C 300.835 326.374,300.679 326.398,300.186 325.988 C 299.683 325.571,299.624 325.596,299.834 326.143 C 299.972 326.505,300.317 326.800,300.600 326.800 C 300.883 326.800,301.208 327.043,301.321 327.339 C 301.682 328.278,304.256 329.584,304.758 329.082 C 305.081 328.759,305.200 328.763,305.200 329.096 C 305.200 329.347,305.011 329.669,304.781 329.812 C 304.282 330.120,305.042 331.203,305.749 331.194 C 306.021 331.190,305.988 331.053,305.666 330.849 C 305.260 330.592,305.332 330.459,305.966 330.293 C 306.425 330.173,306.800 329.856,306.800 329.588 C 306.800 329.212,306.665 329.214,306.200 329.600 C 305.698 330.017,305.600 329.955,305.600 329.222 C 305.600 328.498,305.444 328.394,304.700 328.623 C 304.205 328.775,303.924 328.768,304.076 328.607 C 304.584 328.069,303.448 327.260,302.724 327.644 C 302.322 327.857,301.957 327.854,301.822 327.635 C 301.697 327.433,301.821 327.177,302.098 327.066 C 302.445 326.926,302.415 326.852,302.000 326.825 C 301.593 326.800,301.547 326.693,301.856 326.494 C 302.189 326.279,302.172 326.071,301.792 325.718 C 301.383 325.338,301.221 325.369,301.031 325.863 M307.254 330.956 C 307.225 331.372,306.885 331.962,306.500 332.267 C 305.948 332.705,305.927 332.809,306.400 332.764 C 307.692 332.638,308.436 332.818,308.200 333.200 C 308.064 333.420,308.113 333.600,308.310 333.600 C 308.506 333.600,308.667 333.060,308.667 332.400 C 308.667 331.740,308.506 331.200,308.310 331.200 C 308.113 331.200,308.064 331.380,308.200 331.600 C 308.336 331.820,308.269 332.000,308.051 332.000 C 307.834 332.000,307.578 331.595,307.482 331.100 C 307.347 330.396,307.297 330.364,307.254 330.956 M121.762 333.293 C 121.233 333.913,121.202 334.030,121.661 333.676 C 122.198 333.263,122.360 333.264,122.520 333.683 C 122.629 333.967,122.699 333.795,122.674 333.300 C 122.620 332.208,122.688 332.208,121.762 333.293 M395.704 333.679 C 395.674 334.076,395.829 334.400,396.048 334.400 C 396.268 334.400,396.343 334.231,396.215 334.025 C 396.088 333.818,396.302 333.468,396.692 333.247 C 397.338 332.879,397.328 332.849,396.579 332.901 C 396.099 332.935,395.736 333.258,395.704 333.679 M284.442 334.082 C 284.184 334.494,283.800 334.723,283.587 334.592 C 283.374 334.460,283.200 334.603,283.200 334.910 C 283.200 335.216,283.462 335.467,283.782 335.467 C 284.103 335.467,284.272 335.317,284.159 335.133 C 284.045 334.950,284.143 334.800,284.376 334.800 C 284.609 334.800,284.800 335.070,284.800 335.400 C 284.800 335.730,284.974 336.000,285.187 336.000 C 285.401 336.000,285.477 336.315,285.357 336.700 C 285.160 337.336,285.182 337.334,285.601 336.679 C 285.953 336.131,285.948 335.819,285.583 335.379 C 285.243 334.970,285.234 334.800,285.551 334.800 C 285.798 334.800,286.000 334.609,286.000 334.376 C 286.000 334.143,285.775 334.088,285.500 334.253 C 285.102 334.492,285.101 334.429,285.494 333.943 C 285.889 333.454,285.880 333.333,285.448 333.333 C 285.152 333.333,284.699 333.670,284.442 334.082 M309.173 333.400 C 309.151 333.620,309.090 334.187,309.036 334.661 C 308.966 335.282,309.107 335.457,309.539 335.291 C 309.964 335.128,310.068 335.246,309.895 335.697 C 309.751 336.072,309.897 336.428,310.251 336.564 C 310.581 336.691,310.739 336.976,310.602 337.197 C 310.044 338.100,310.759 337.523,311.388 336.562 C 312.049 335.553,312.045 335.532,311.234 335.789 C 310.567 336.001,310.400 335.883,310.400 335.203 C 310.400 334.662,310.232 334.457,309.938 334.638 C 309.684 334.795,309.582 334.752,309.712 334.543 C 309.841 334.333,309.782 333.900,309.580 333.581 C 309.378 333.261,309.194 333.180,309.173 333.400 M357.600 334.000 C 357.200 334.258,357.167 334.390,357.500 334.394 C 357.895 334.399,358.000 340.550,358.000 363.800 C 358.000 390.261,357.937 393.200,357.371 393.200 C 356.800 393.200,356.800 393.257,357.371 393.829 C 358.015 394.473,358.156 394.947,358.014 396.000 C 357.955 396.436,358.056 396.481,358.381 396.165 C 358.690 395.866,358.709 395.412,358.442 394.710 C 358.091 393.787,358.137 393.707,358.927 393.879 C 359.426 393.988,359.629 393.926,359.400 393.735 C 359.137 393.514,359.070 383.295,359.204 363.800 L 359.408 334.200 359.601 363.800 L 359.795 393.400 359.900 364.044 C 360.015 332.057,360.043 332.422,357.600 334.000 M286.311 336.061 C 286.211 336.357,286.416 336.825,286.765 337.101 C 287.322 337.541,287.302 337.574,286.600 337.376 C 286.114 337.238,286.232 337.400,286.900 337.787 C 287.511 338.142,288.000 338.775,288.000 339.213 C 288.000 339.691,288.275 340.005,288.700 340.013 C 289.445 340.026,290.800 340.901,290.800 341.368 C 290.800 341.521,290.575 341.518,290.300 341.359 C 290.010 341.192,289.940 341.224,290.133 341.436 C 290.317 341.636,290.660 341.800,290.895 341.800 C 291.131 341.800,291.372 342.131,291.432 342.537 C 291.491 342.942,291.672 343.392,291.834 343.537 C 291.995 343.681,292.018 343.494,291.884 343.120 C 291.715 342.648,291.810 342.506,292.195 342.653 C 292.500 342.770,292.654 343.166,292.537 343.533 C 292.356 344.100,292.387 344.111,292.746 343.603 C 293.081 343.128,293.268 343.108,293.663 343.503 C 293.996 343.836,294.014 344.000,293.715 344.000 C 293.471 344.000,293.331 344.315,293.405 344.700 C 293.478 345.085,293.555 345.490,293.576 345.600 C 293.596 345.710,293.787 345.530,294.000 345.200 C 294.326 344.695,294.389 344.719,294.394 345.349 C 294.399 346.002,294.487 346.027,295.075 345.549 C 295.662 345.071,295.717 345.086,295.500 345.667 C 295.345 346.080,295.492 346.427,295.887 346.578 C 296.445 346.792,296.430 346.896,295.761 347.432 C 295.018 348.027,295.019 348.037,295.800 347.830 C 296.906 347.537,297.755 348.164,297.512 349.092 C 297.401 349.518,297.510 349.866,297.755 349.866 C 298.000 349.866,298.219 349.364,298.242 348.752 C 298.264 348.140,298.091 347.675,297.856 347.719 C 297.621 347.764,297.397 347.260,297.357 346.600 C 297.262 345.002,297.285 345.032,296.600 345.600 C 296.109 346.008,296.000 345.980,296.000 345.449 C 296.000 345.092,295.708 344.800,295.351 344.800 C 294.820 344.800,294.792 344.691,295.200 344.200 C 295.549 343.780,295.563 343.585,295.249 343.550 C 294.424 343.458,294.203 343.390,293.700 343.070 C 293.425 342.896,293.200 342.573,293.200 342.353 C 293.200 342.133,293.408 342.081,293.662 342.238 C 293.933 342.406,294.016 342.349,293.861 342.099 C 293.717 341.866,293.211 341.777,292.737 341.901 C 292.144 342.056,291.965 341.981,292.163 341.660 C 292.324 341.399,292.176 341.089,291.825 340.954 C 291.481 340.822,291.200 340.453,291.200 340.134 C 291.200 339.814,291.036 339.654,290.836 339.778 C 290.047 340.266,289.197 339.553,289.621 338.760 C 289.937 338.170,289.891 337.989,289.414 337.950 C 289.076 337.923,288.617 337.878,288.394 337.850 C 288.170 337.822,287.651 337.287,287.240 336.661 C 286.743 335.904,286.432 335.703,286.311 336.061 M312.261 337.596 C 314.045 340.615,316.107 341.719,315.326 339.236 C 315.216 338.886,315.504 339.050,315.967 339.600 L 316.809 340.600 316.459 339.600 C 316.078 338.511,314.400 338.086,314.400 339.078 C 314.400 339.391,314.236 339.546,314.036 339.422 C 313.835 339.298,313.716 338.895,313.770 338.526 C 313.887 337.725,312.840 336.400,312.088 336.400 C 311.682 336.400,311.723 336.685,312.261 337.596 M315.900 341.465 C 316.175 341.576,316.400 341.922,316.400 342.233 C 316.400 342.545,316.591 342.800,316.824 342.800 C 317.057 342.800,317.136 342.620,317.000 342.400 C 316.864 342.180,316.954 342.000,317.200 342.000 C 317.446 342.000,317.536 341.820,317.400 341.600 C 317.264 341.380,316.758 341.214,316.276 341.232 C 315.794 341.249,315.625 341.354,315.900 341.465 M317.891 343.093 C 318.067 343.551,317.986 343.639,317.606 343.404 C 317.251 343.184,317.172 343.231,317.366 343.545 C 317.525 343.802,317.823 343.909,318.028 343.783 C 318.232 343.656,318.403 343.878,318.406 344.276 C 318.411 344.890,318.471 344.909,318.800 344.400 C 319.032 344.042,319.190 343.991,319.194 344.275 C 319.197 344.536,319.548 344.724,319.972 344.692 C 320.962 344.618,320.736 344.277,319.024 343.267 C 317.892 342.600,317.690 342.568,317.891 343.093 M319.469 345.834 C 319.607 346.194,320.080 346.291,320.936 346.134 C 322.108 345.920,322.145 345.945,321.442 346.488 C 320.704 347.058,320.708 347.090,321.568 347.693 C 322.645 348.447,324.222 348.206,323.478 347.402 C 323.162 347.060,322.771 347.007,322.324 347.244 C 321.919 347.458,321.556 347.453,321.418 347.230 C 321.292 347.025,321.580 346.733,322.059 346.581 C 322.874 346.323,322.884 346.279,322.204 345.898 C 321.047 345.251,319.228 345.208,319.469 345.834 M298.666 348.173 C 298.546 348.486,298.752 348.980,299.124 349.271 C 299.723 349.740,299.741 349.724,299.283 349.139 C 298.876 348.618,298.872 348.443,299.264 348.312 C 299.610 348.197,299.627 348.064,299.322 347.876 C 299.081 347.727,298.786 347.860,298.666 348.173 M323.870 348.344 C 323.469 348.502,323.136 348.804,323.130 349.016 C 323.125 349.227,322.945 349.351,322.730 349.290 C 322.516 349.230,322.463 349.378,322.612 349.620 C 322.791 349.909,323.213 349.751,323.842 349.160 C 324.369 348.665,324.800 348.461,324.800 348.707 C 324.800 348.952,324.617 349.266,324.393 349.404 C 324.170 349.542,324.092 349.826,324.221 350.034 C 324.350 350.243,324.641 350.298,324.868 350.158 C 325.112 350.007,325.091 350.256,324.816 350.770 C 324.386 351.573,324.411 351.600,325.150 351.138 C 326.100 350.545,326.539 349.178,325.963 348.607 C 325.683 348.329,325.637 348.423,325.819 348.900 C 325.974 349.306,325.899 349.600,325.643 349.600 C 325.399 349.600,325.200 349.240,325.200 348.800 C 325.200 347.949,325.025 347.889,323.870 348.344 M300.000 349.962 C 300.000 350.234,299.780 350.323,299.500 350.165 C 299.115 349.948,299.108 349.999,299.469 350.390 C 299.727 350.669,299.828 351.191,299.694 351.549 C 299.480 352.120,299.535 352.131,300.142 351.637 C 300.666 351.210,300.946 351.186,301.297 351.537 C 301.866 352.106,302.400 352.137,302.400 351.600 C 302.400 351.380,302.240 351.245,302.044 351.300 C 301.847 351.355,301.307 350.967,300.844 350.439 C 300.380 349.910,300.000 349.696,300.000 349.962 M326.515 350.898 C 325.954 352.141,326.234 352.444,327.500 351.966 C 328.484 351.594,328.664 351.010,327.932 350.558 C 327.617 350.364,327.548 350.487,327.719 350.934 C 327.860 351.300,327.813 351.600,327.615 351.600 C 327.417 351.600,327.198 351.201,327.128 350.713 C 327.005 349.863,326.980 349.871,326.515 350.898 M302.596 352.407 C 302.458 352.630,302.177 352.709,301.972 352.583 C 301.768 352.456,301.600 352.543,301.600 352.776 C 301.600 353.009,301.870 353.200,302.200 353.200 C 302.875 353.200,304.400 354.587,304.400 355.200 C 304.400 355.420,304.535 355.604,304.700 355.609 C 304.865 355.614,305.450 355.976,306.000 356.414 C 306.830 357.075,306.864 357.171,306.200 356.978 C 305.626 356.810,305.682 356.913,306.399 357.340 C 307.577 358.041,307.929 357.879,307.183 356.979 C 306.750 356.458,306.747 356.280,307.168 356.020 C 307.533 355.795,307.554 355.619,307.243 355.426 C 306.999 355.276,306.797 355.388,306.794 355.676 C 306.789 356.057,306.682 356.036,306.400 355.600 C 306.073 355.094,306.011 355.090,306.006 355.576 C 306.002 355.987,305.836 355.930,305.428 355.376 C 305.113 354.949,305.023 354.540,305.228 354.467 C 305.965 354.202,305.581 353.680,304.800 353.884 C 304.244 354.030,304.000 353.896,304.000 353.447 C 304.000 353.091,303.865 352.821,303.700 352.847 C 302.910 352.972,302.660 352.749,303.200 352.400 C 303.561 352.167,303.610 352.010,303.324 352.006 C 303.062 352.003,302.734 352.183,302.596 352.407 M328.695 353.200 C 328.289 354.269,328.517 355.029,329.245 355.029 C 329.684 355.029,329.828 354.870,329.621 354.614 C 329.437 354.386,329.205 353.840,329.105 353.400 C 328.964 352.780,328.873 352.735,328.695 353.200 M330.800 355.147 C 330.800 355.364,330.485 355.607,330.100 355.688 C 329.518 355.810,329.569 355.925,330.400 356.372 C 330.950 356.667,331.267 356.766,331.103 356.591 C 330.940 356.416,330.994 356.048,331.223 355.772 C 331.511 355.425,331.510 355.192,331.219 355.012 C 330.989 354.869,330.800 354.930,330.800 355.147 M331.600 356.617 C 331.600 357.577,333.048 358.970,333.420 358.368 C 333.626 358.035,333.558 357.979,333.210 358.194 C 332.866 358.406,332.762 358.328,332.894 357.956 C 333.130 357.292,332.531 356.000,331.986 356.000 C 331.774 356.000,331.600 356.278,331.600 356.617 M307.790 358.447 C 307.640 359.130,307.358 359.498,307.106 359.342 C 306.870 359.196,306.790 359.260,306.929 359.485 C 307.067 359.709,307.633 359.806,308.185 359.701 C 308.867 359.570,309.269 359.715,309.437 360.152 C 309.573 360.506,309.876 360.677,310.110 360.532 C 310.376 360.367,310.441 360.516,310.282 360.930 C 310.137 361.309,310.213 361.550,310.461 361.495 C 310.699 361.443,310.949 361.731,311.017 362.137 C 311.161 362.998,311.600 363.548,311.600 362.867 C 311.600 362.610,311.774 362.400,311.987 362.400 C 312.201 362.400,312.320 362.625,312.253 362.900 C 312.186 363.175,312.207 363.265,312.299 363.100 C 312.660 362.454,313.145 362.846,312.989 363.657 C 312.776 364.764,313.193 365.455,313.644 364.743 C 313.907 364.328,313.989 364.376,313.994 364.949 C 313.999 365.569,314.103 365.612,314.600 365.200 C 315.090 364.793,315.200 364.817,315.200 365.331 C 315.200 365.677,315.515 366.144,315.900 366.368 C 316.544 366.743,316.536 366.778,315.800 366.800 C 315.031 366.823,315.029 366.841,315.748 367.259 C 316.314 367.588,316.579 367.561,316.842 367.147 C 317.109 366.725,317.189 366.770,317.194 367.343 C 317.198 367.826,317.403 368.008,317.780 367.863 C 318.192 367.705,318.286 367.833,318.103 368.307 C 317.877 368.897,317.920 368.906,318.482 368.387 C 319.133 367.784,319.067 367.200,318.348 367.200 C 317.722 367.200,316.721 366.051,316.981 365.631 C 317.109 365.424,317.030 365.142,316.807 365.004 C 316.583 364.866,316.400 364.943,316.400 365.176 C 316.400 365.409,316.220 365.600,316.000 365.600 C 315.780 365.600,315.600 365.330,315.600 365.000 C 315.600 364.670,315.308 364.400,314.951 364.400 C 314.444 364.400,314.402 364.279,314.761 363.847 C 315.116 363.419,315.077 363.238,314.589 363.051 C 314.225 362.912,314.062 362.976,314.203 363.205 C 314.337 363.422,314.156 363.600,313.800 363.600 C 313.444 363.600,313.237 363.463,313.341 363.296 C 313.572 362.922,312.602 361.536,312.136 361.573 C 311.951 361.588,311.792 361.375,311.782 361.100 C 311.772 360.825,311.547 360.645,311.282 360.700 C 311.017 360.755,310.800 360.418,310.800 359.951 C 310.800 359.242,310.701 359.184,310.200 359.600 C 309.616 360.084,309.385 359.763,309.553 358.700 C 309.579 358.535,309.375 358.397,309.100 358.394 C 308.726 358.389,308.734 358.303,309.134 358.049 C 309.542 357.791,309.476 357.661,308.856 357.499 C 308.212 357.330,307.992 357.526,307.790 358.447 M334.165 358.654 C 334.288 358.974,334.112 359.200,333.738 359.200 C 333.218 359.200,333.193 359.309,333.600 359.800 C 334.430 360.800,335.168 360.531,334.971 359.300 C 334.800 358.232,334.813 358.223,335.433 359.000 L 336.072 359.800 335.931 359.000 C 335.841 358.492,335.454 358.183,334.872 358.154 C 334.251 358.122,334.023 358.283,334.165 358.654 M337.100 360.265 C 337.375 360.376,337.600 360.700,337.600 360.984 C 337.600 361.269,337.865 361.722,338.189 361.991 C 338.689 362.406,338.684 362.291,338.160 361.240 C 337.820 360.558,337.330 360.014,337.071 360.032 C 336.741 360.054,336.750 360.123,337.100 360.265 M335.500 361.065 C 335.775 361.176,336.000 361.522,336.000 361.833 C 336.000 362.145,336.191 362.400,336.424 362.400 C 336.657 362.400,336.736 362.220,336.600 362.000 C 336.464 361.780,336.554 361.600,336.800 361.600 C 337.046 361.600,337.136 361.420,337.000 361.200 C 336.864 360.980,336.358 360.814,335.876 360.832 C 335.394 360.849,335.225 360.954,335.500 361.065 M337.717 363.185 C 338.019 363.986,338.269 364.217,338.477 363.889 C 338.720 363.507,338.789 363.510,338.794 363.900 C 338.797 364.175,338.980 364.400,339.200 364.400 C 339.960 364.400,339.596 363.652,338.433 362.824 L 337.267 361.993 337.717 363.185 M339.878 364.424 C 339.755 364.895,339.500 365.186,339.313 365.070 C 339.125 364.954,338.971 365.179,338.971 365.570 C 338.971 366.055,339.198 366.221,339.686 366.093 C 340.079 365.991,340.400 365.737,340.400 365.530 C 340.400 365.322,340.625 365.288,340.900 365.453 C 341.187 365.626,341.144 365.439,340.800 365.015 C 340.470 364.609,340.260 364.200,340.333 364.105 C 340.407 364.011,340.385 363.851,340.284 363.751 C 340.184 363.650,340.001 363.954,339.878 364.424 M319.600 369.562 C 319.600 369.844,319.390 369.921,319.100 369.747 C 318.701 369.507,318.700 369.571,319.097 370.060 C 319.370 370.397,319.471 370.796,319.321 370.945 C 319.172 371.095,319.480 371.168,320.007 371.109 C 320.786 371.020,320.967 371.186,320.982 372.000 C 320.997 372.816,321.173 372.976,321.937 372.869 C 322.741 372.756,322.834 372.863,322.594 373.619 C 322.404 374.217,322.457 374.412,322.757 374.226 C 323.001 374.076,323.203 374.188,323.206 374.476 C 323.210 374.796,323.327 374.844,323.506 374.600 C 323.682 374.361,324.340 374.725,325.140 375.503 C 326.016 376.354,326.224 376.726,325.740 376.575 C 325.333 376.448,325.450 376.612,325.999 376.940 C 326.549 377.267,327.065 377.469,327.145 377.388 C 327.427 377.106,325.528 374.397,325.193 374.604 C 325.007 374.719,324.742 374.630,324.604 374.407 C 324.466 374.183,324.588 374.000,324.876 373.999 C 325.164 373.999,324.770 373.678,324.000 373.286 C 323.230 372.894,322.655 372.324,322.723 372.019 C 322.821 371.576,322.728 371.562,322.258 371.952 C 321.860 372.282,321.588 372.304,321.412 372.019 C 321.269 371.789,321.343 371.600,321.576 371.600 C 321.809 371.600,322.000 371.420,322.000 371.200 C 322.000 370.980,321.840 370.845,321.644 370.900 C 321.447 370.955,320.907 370.567,320.444 370.039 C 319.980 369.510,319.600 369.296,319.600 369.562 M327.445 377.746 C 327.321 378.216,327.418 378.668,327.660 378.750 C 327.902 378.832,328.412 379.212,328.794 379.594 C 329.394 380.194,329.618 380.216,330.444 379.758 C 331.076 379.408,331.197 379.208,330.800 379.168 C 330.470 379.135,329.930 379.083,329.600 379.054 C 329.270 379.024,329.045 378.775,329.100 378.500 C 329.155 378.225,328.975 377.997,328.700 377.994 C 328.326 377.989,328.334 377.903,328.734 377.649 C 329.143 377.390,329.081 377.262,328.468 377.102 C 327.890 376.951,327.607 377.129,327.445 377.746 M330.000 380.732 C 330.000 380.915,330.444 381.302,330.986 381.593 C 331.529 381.883,331.902 382.235,331.816 382.375 C 331.729 382.514,332.006 382.629,332.429 382.629 C 332.853 382.629,333.200 382.487,333.200 382.314 C 333.200 382.141,333.020 382.000,332.800 382.000 C 332.580 382.000,332.397 381.685,332.394 381.300 C 332.389 380.768,332.307 380.727,332.052 381.130 C 331.779 381.559,331.598 381.541,331.087 381.030 C 330.390 380.333,330.000 380.226,330.000 380.732 M333.632 382.700 C 333.614 382.975,333.285 383.205,332.900 383.212 C 332.233 383.224,332.233 383.244,332.900 383.632 C 333.285 383.856,333.600 384.301,333.600 384.620 C 333.600 385.327,334.395 385.405,334.412 384.700 C 334.419 384.425,334.628 384.560,334.878 385.000 C 335.127 385.440,335.527 385.932,335.766 386.094 C 336.021 386.267,335.870 386.393,335.400 386.400 C 334.752 386.410,334.712 386.483,335.187 386.783 C 335.566 387.023,335.981 386.986,336.363 386.677 C 336.821 386.307,336.889 386.308,336.666 386.680 C 336.200 387.456,337.808 388.114,338.407 387.392 C 338.860 386.846,338.675 386.625,337.879 386.760 C 337.356 386.848,336.329 385.639,336.581 385.231 C 336.709 385.024,336.630 384.742,336.407 384.604 C 336.183 384.466,336.000 384.543,336.000 384.776 C 336.000 385.009,335.820 385.200,335.600 385.200 C 335.380 385.200,335.200 384.930,335.200 384.600 C 335.200 384.270,334.908 384.000,334.551 384.000 C 333.992 384.000,333.978 383.906,334.451 383.323 C 334.753 382.951,334.790 382.772,334.534 382.926 C 334.278 383.079,333.977 382.979,333.866 382.702 C 333.705 382.303,333.657 382.303,333.632 382.700 M336.533 388.643 C 336.533 388.912,336.888 389.060,337.330 388.975 C 338.401 388.769,339.309 389.985,338.667 390.764 C 338.273 391.242,338.334 391.260,339.053 390.877 C 339.522 390.627,340.015 390.138,340.148 389.790 C 340.288 389.426,340.224 389.262,339.995 389.403 C 339.778 389.537,339.597 389.412,339.594 389.124 C 339.589 388.743,339.482 388.764,339.200 389.200 C 338.863 389.721,338.811 389.714,338.806 389.145 C 338.802 388.735,338.378 388.429,337.667 388.324 C 336.954 388.220,336.533 388.338,336.533 388.643 M341.200 390.885 C 341.200 391.058,341.391 391.200,341.624 391.200 C 341.857 391.200,341.931 391.389,341.788 391.619 C 341.611 391.906,341.350 391.891,340.964 391.570 C 340.281 391.004,340.174 391.837,340.806 392.800 C 341.137 393.303,341.257 393.311,341.555 392.849 C 341.753 392.541,342.126 392.431,342.398 392.599 C 342.689 392.779,342.731 393.000,342.502 393.150 C 342.290 393.288,342.565 393.850,343.111 394.400 C 343.658 394.950,343.981 395.175,343.829 394.900 C 343.677 394.625,343.743 394.400,343.976 394.400 C 344.834 394.400,344.359 393.380,343.192 392.716 C 342.021 392.049,341.794 391.290,342.595 390.718 C 342.812 390.562,342.587 390.466,342.095 390.503 C 341.603 390.540,341.200 390.712,341.200 390.885 M344.588 394.420 C 344.440 394.658,344.426 394.960,344.556 395.090 C 344.687 395.220,344.617 395.538,344.403 395.797 C 344.135 396.120,344.193 396.267,344.589 396.267 C 344.906 396.267,345.072 396.117,344.959 395.933 C 344.845 395.750,344.943 395.600,345.176 395.600 C 345.409 395.600,345.600 395.851,345.600 396.157 C 345.600 396.464,345.825 396.801,346.100 396.906 C 346.688 397.132,346.807 395.056,346.236 394.533 C 346.024 394.340,345.992 394.410,346.159 394.700 C 346.339 395.013,346.205 395.200,345.800 395.200 C 345.444 395.200,345.256 395.032,345.383 394.828 C 345.509 394.623,345.443 394.350,345.234 394.221 C 345.026 394.092,344.735 394.182,344.588 394.420 " stroke="none" fill="#cccccc" fill-rule="evenodd"></path><path id="path2" d="M4.400 3.776 C 4.400 4.119,4.119 4.400,3.776 4.400 C 3.433 4.400,3.259 4.572,3.389 4.783 C 3.695 5.277,4.676 4.899,4.952 4.182 C 5.069 3.876,4.993 3.519,4.783 3.389 C 4.572 3.259,4.400 3.433,4.400 3.776 M276.000 3.553 C 276.000 3.886,240.841 4.002,140.913 3.998 L 5.825 3.993 4.910 4.909 L 3.994 5.824 3.897 109.712 C 3.833 178.762,3.934 213.604,4.200 213.613 C 4.420 213.620,4.274 213.872,3.876 214.174 C 3.444 214.502,3.316 214.824,3.559 214.974 C 3.782 215.113,3.865 215.486,3.743 215.805 C 3.479 216.493,119.727 216.724,120.554 216.038 C 120.882 215.766,120.976 231.349,120.910 274.673 L 120.821 333.678 121.860 332.998 C 122.431 332.623,122.776 332.516,122.626 332.759 C 122.462 333.023,122.666 333.200,123.134 333.200 C 123.563 333.200,124.018 333.471,124.145 333.802 C 124.472 334.654,284.304 334.715,284.631 333.863 C 284.743 333.572,285.094 333.333,285.411 333.333 C 285.877 333.333,285.892 333.451,285.494 333.943 C 285.101 334.429,285.102 334.492,285.500 334.253 C 285.775 334.088,286.000 334.128,286.000 334.343 C 286.000 334.558,285.833 334.793,285.628 334.867 C 285.423 334.940,285.513 335.349,285.828 335.776 C 286.235 336.328,286.401 336.386,286.403 335.976 C 286.404 335.659,286.761 335.940,287.196 336.600 C 287.631 337.260,288.170 337.822,288.394 337.850 C 288.617 337.878,289.076 337.923,289.414 337.950 C 289.891 337.989,289.937 338.170,289.621 338.760 C 289.197 339.553,290.047 340.266,290.836 339.778 C 291.036 339.654,291.200 339.821,291.200 340.149 C 291.200 340.478,291.584 340.868,292.053 341.017 C 292.723 341.229,292.787 341.363,292.353 341.638 C 291.899 341.925,291.911 341.989,292.420 341.994 C 292.761 341.997,293.226 341.814,293.453 341.587 C 293.738 341.302,293.867 341.359,293.867 341.769 C 293.867 342.097,293.717 342.272,293.533 342.159 C 293.015 341.839,293.141 342.581,293.700 343.144 C 294.101 343.548,294.042 343.596,293.400 343.386 C 292.761 343.177,292.720 343.210,293.197 343.546 C 293.540 343.788,293.943 343.817,294.145 343.615 C 294.750 343.010,295.698 343.599,295.161 344.247 C 294.802 344.679,294.844 344.800,295.351 344.800 C 295.708 344.800,296.000 345.092,296.000 345.449 C 296.000 345.962,296.118 346.000,296.564 345.630 C 297.256 345.056,297.458 345.411,297.397 347.087 C 297.357 348.172,297.441 348.298,297.932 347.890 C 298.423 347.483,298.470 347.549,298.231 348.303 C 297.960 349.157,298.285 349.426,299.351 349.230 C 299.544 349.195,299.606 349.533,299.489 349.983 C 299.371 350.432,299.466 350.917,299.699 351.061 C 299.933 351.206,300.018 351.152,299.888 350.943 C 299.759 350.733,299.818 350.300,300.020 349.981 C 300.315 349.515,300.389 349.509,300.394 349.947 C 300.398 350.326,300.735 350.429,301.492 350.284 C 302.514 350.089,302.535 350.112,301.816 350.638 C 301.130 351.140,301.243 351.383,302.100 351.247 C 302.631 351.164,302.420 351.696,301.700 352.257 C 301.034 352.775,301.035 352.790,301.705 352.556 C 302.093 352.421,302.649 352.509,302.942 352.752 C 303.234 352.994,303.592 353.075,303.737 352.930 C 303.882 352.785,304.000 352.980,304.000 353.363 C 304.000 353.812,304.248 354.009,304.700 353.919 C 305.178 353.824,305.358 353.484,305.267 352.846 C 305.188 352.287,305.299 352.014,305.543 352.165 C 306.013 352.455,305.800 354.029,305.243 354.373 C 305.027 354.507,305.108 354.933,305.434 355.379 C 305.838 355.931,306.002 355.988,306.006 355.576 C 306.011 355.090,306.073 355.094,306.400 355.600 C 306.682 356.036,306.789 356.057,306.794 355.676 C 306.797 355.388,306.978 355.263,307.196 355.398 C 307.445 355.552,307.408 355.841,307.096 356.179 C 306.823 356.474,306.437 356.617,306.238 356.496 C 306.039 356.375,306.007 356.487,306.166 356.745 C 306.325 357.002,306.624 357.109,306.831 356.981 C 307.038 356.853,307.374 357.165,307.578 357.674 C 307.831 358.304,307.957 358.388,307.975 357.937 C 307.993 357.467,308.242 357.338,308.834 357.493 C 309.468 357.659,309.540 357.792,309.134 358.049 C 308.702 358.323,308.700 358.389,309.124 358.394 C 309.412 358.397,309.536 358.580,309.400 358.800 C 309.264 359.020,309.354 359.200,309.600 359.200 C 309.851 359.200,309.916 359.419,309.747 359.700 C 309.543 360.040,309.663 360.024,310.123 359.651 C 310.719 359.168,310.800 359.204,310.800 359.951 C 310.800 360.418,311.017 360.755,311.282 360.700 C 311.547 360.645,311.780 360.870,311.800 361.200 C 311.820 361.530,312.017 361.767,312.239 361.727 C 312.460 361.686,312.854 361.994,313.115 362.412 C 313.519 363.060,313.487 363.138,312.894 362.947 C 312.307 362.759,312.292 362.791,312.800 363.156 C 313.554 363.699,314.529 363.732,314.203 363.205 C 314.062 362.976,314.225 362.912,314.589 363.051 C 315.077 363.238,315.116 363.419,314.761 363.847 C 314.402 364.279,314.444 364.400,314.951 364.400 C 315.308 364.400,315.600 364.670,315.600 365.000 C 315.600 365.330,315.780 365.600,316.000 365.600 C 316.220 365.600,316.400 365.409,316.400 365.176 C 316.400 364.943,316.572 364.859,316.783 364.989 C 316.993 365.119,317.052 365.519,316.915 365.878 C 316.747 366.315,316.819 366.435,317.132 366.242 C 317.407 366.072,317.600 366.191,317.600 366.530 C 317.600 367.060,318.950 367.759,319.730 367.633 C 319.911 367.604,319.945 367.765,319.805 367.991 C 319.634 368.269,319.307 368.272,318.800 368.000 C 318.274 367.718,317.963 367.736,317.762 368.061 C 317.585 368.348,317.652 368.415,317.938 368.238 C 318.215 368.067,318.400 368.213,318.400 368.600 C 318.400 368.988,318.585 369.133,318.863 368.961 C 319.180 368.765,319.255 368.946,319.101 369.537 C 318.977 370.011,319.043 370.503,319.247 370.629 C 319.452 370.756,319.594 370.711,319.563 370.530 C 319.426 369.746,319.633 369.200,320.067 369.200 C 320.323 369.200,320.428 369.305,320.300 369.434 C 319.971 369.762,321.270 371.204,321.671 370.956 C 321.852 370.844,322.000 370.928,322.000 371.143 C 322.000 371.358,321.775 371.640,321.500 371.771 C 321.225 371.902,321.399 371.935,321.886 371.845 C 322.397 371.751,322.736 371.871,322.686 372.128 C 322.639 372.373,323.194 372.876,323.921 373.246 C 324.647 373.617,325.033 373.989,324.777 374.074 C 324.479 374.174,324.571 374.439,325.033 374.815 C 325.668 375.331,325.717 375.329,325.447 374.800 C 325.279 374.470,325.443 374.560,325.813 375.000 C 326.182 375.440,326.728 376.340,327.027 377.000 C 327.330 377.673,327.576 377.909,327.584 377.537 C 327.595 377.065,327.840 376.938,328.434 377.093 C 329.068 377.259,329.140 377.392,328.734 377.649 C 328.302 377.923,328.300 377.989,328.724 377.994 C 329.012 377.997,329.136 378.180,329.000 378.400 C 328.864 378.620,328.943 378.823,329.176 378.850 C 329.409 378.878,329.780 378.945,330.000 379.000 C 330.220 379.055,330.625 379.129,330.900 379.164 C 331.175 379.199,330.952 379.476,330.405 379.779 C 329.858 380.082,329.245 380.228,329.043 380.103 C 328.841 379.978,328.794 380.067,328.939 380.301 C 329.083 380.534,329.561 380.631,330.000 380.516 C 330.510 380.382,330.802 380.505,330.806 380.853 C 330.811 381.280,330.897 381.268,331.200 380.800 C 331.522 380.302,331.590 380.336,331.600 381.000 C 331.610 381.664,331.678 381.698,332.000 381.200 C 332.331 380.687,332.389 380.702,332.394 381.300 C 332.397 381.685,332.580 382.000,332.800 382.000 C 333.020 382.000,333.200 382.174,333.200 382.387 C 333.200 382.601,332.885 382.677,332.500 382.557 C 331.902 382.371,331.908 382.409,332.548 382.816 C 333.140 383.194,333.367 383.180,333.642 382.747 C 333.915 382.314,333.989 382.309,333.994 382.724 C 333.998 383.035,334.202 383.126,334.500 382.947 C 334.840 382.743,334.824 382.863,334.451 383.323 C 333.978 383.906,333.992 384.000,334.551 384.000 C 334.908 384.000,335.200 384.270,335.200 384.600 C 335.200 384.930,335.380 385.200,335.600 385.200 C 335.820 385.200,336.000 385.009,336.000 384.776 C 336.000 384.543,336.172 384.459,336.383 384.589 C 336.593 384.719,336.652 385.119,336.515 385.478 C 336.347 385.915,336.419 386.035,336.732 385.842 C 337.007 385.672,337.200 385.792,337.200 386.132 C 337.200 386.450,337.494 386.686,337.853 386.656 C 338.212 386.625,338.558 386.925,338.621 387.322 C 338.710 387.883,338.616 387.946,338.203 387.603 C 337.833 387.295,337.592 387.290,337.410 387.583 C 337.267 387.816,337.476 388.109,337.875 388.235 C 340.051 388.925,340.337 389.156,340.106 390.040 C 339.946 390.650,340.018 390.836,340.337 390.639 C 340.612 390.469,340.800 390.606,340.800 390.976 C 340.800 391.319,341.115 391.586,341.500 391.568 C 341.918 391.550,341.999 391.456,341.700 391.335 C 340.909 391.016,341.117 390.576,342.095 390.503 C 342.587 390.466,342.812 390.562,342.595 390.718 C 341.794 391.290,342.021 392.049,343.192 392.716 C 343.854 393.092,344.396 393.625,344.397 393.900 C 344.399 394.175,344.625 394.355,344.900 394.300 C 345.175 394.245,345.355 394.425,345.300 394.700 C 345.245 394.975,345.481 395.200,345.824 395.200 C 346.193 395.200,346.331 395.012,346.162 394.738 C 345.979 394.443,346.053 394.385,346.365 394.579 C 346.634 394.745,346.758 395.133,346.640 395.440 C 346.391 396.088,346.135 396.060,351.700 396.002 C 354.420 395.973,356.000 396.108,356.000 396.370 C 356.000 396.646,356.322 396.636,356.971 396.340 C 358.011 395.866,358.234 394.400,357.266 394.400 C 356.826 394.400,356.805 394.524,357.170 394.964 C 357.529 395.397,357.526 395.598,357.158 395.826 C 356.866 396.006,356.781 395.955,356.941 395.696 C 357.086 395.461,356.995 395.198,356.737 395.112 C 355.839 394.813,356.024 393.686,356.943 393.859 C 357.774 394.016,357.773 394.007,356.900 393.549 L 356.000 393.078 356.000 363.755 L 356.000 334.432 357.613 333.949 C 358.843 333.580,359.337 333.577,359.693 333.933 C 360.224 334.464,393.012 334.627,393.338 334.100 C 393.440 333.935,385.936 333.805,376.662 333.811 L 359.800 333.822 376.600 333.604 L 393.400 333.387 376.600 333.198 L 359.800 333.009 376.364 332.900 C 391.702 332.799,392.986 332.843,393.722 333.496 C 394.275 333.986,394.568 334.055,394.684 333.722 C 394.776 333.460,395.092 333.337,395.385 333.450 C 396.379 333.831,397.233 331.322,396.308 330.735 C 395.908 330.481,395.907 330.411,396.300 330.406 C 396.680 330.401,396.800 328.770,396.800 323.600 C 396.800 319.352,396.651 316.800,396.402 316.800 C 396.139 316.800,395.969 284.087,395.902 220.451 C 395.825 148.044,395.914 124.146,396.259 124.278 C 397.006 124.565,396.679 122.615,395.839 121.767 C 395.420 121.345,395.193 121.205,395.334 121.455 C 395.476 121.705,395.327 122.129,395.004 122.397 C 394.546 122.777,394.514 123.073,394.857 123.742 C 395.197 124.404,395.189 124.498,394.821 124.152 C 394.559 123.906,394.307 123.456,394.261 123.152 C 394.215 122.849,394.020 122.347,393.827 122.038 C 393.574 121.633,393.620 121.565,393.990 121.794 C 394.325 122.001,394.443 121.930,394.330 121.591 C 394.065 120.796,396.148 120.824,335.400 120.806 L 278.200 120.789 278.200 63.590 C 278.200 14.894,278.283 6.423,278.757 6.605 C 279.212 6.779,279.221 6.707,278.808 6.209 C 278.512 5.853,278.473 5.600,278.714 5.600 C 279.284 5.600,278.848 4.137,278.092 3.513 C 277.585 3.095,277.438 3.096,277.296 3.517 C 277.163 3.914,276.992 3.925,276.561 3.568 C 276.154 3.230,276.000 3.226,276.000 3.553 M141.200 6.400 L 6.600 6.600 6.400 109.800 L 6.199 213.000 6.000 109.733 C 5.867 41.000,5.934 6.489,6.200 6.533 C 6.420 6.570,6.570 6.420,6.533 6.200 C 6.489 5.934,51.467 5.867,141.133 6.000 L 275.800 6.199 141.200 6.400 M200.700 19.100 C 167.975 19.156,114.425 19.156,81.700 19.100 C 48.975 19.044,75.750 18.997,141.200 18.997 C 206.650 18.997,233.425 19.044,200.700 19.100 M262.820 20.145 L 261.969 20.600 261.979 70.800 L 261.989 121.000 260.960 121.479 C 260.096 121.880,259.967 121.864,260.153 121.379 C 260.405 120.723,124.647 120.477,124.241 121.133 C 124.128 121.317,123.489 121.386,122.821 121.288 C 121.494 121.094,120.489 122.499,121.265 123.464 C 121.500 123.757,121.483 124.025,121.219 124.188 C 120.932 124.366,120.800 136.214,120.800 161.924 L 120.800 199.400 71.543 199.297 C 44.452 199.240,21.727 199.347,21.043 199.534 C 20.359 199.721,19.575 199.797,19.300 199.703 C 18.902 199.568,18.820 181.514,18.899 110.867 L 18.998 22.200 19.100 110.700 C 19.168 169.495,19.336 199.200,19.603 199.200 C 19.870 199.200,19.970 169.597,19.902 110.600 C 19.845 60.812,19.952 22.000,20.147 22.000 C 20.337 22.000,20.404 21.660,20.296 21.244 C 20.187 20.829,20.253 20.244,20.443 19.944 C 20.695 19.547,20.789 19.535,20.794 19.899 C 20.803 20.632,260.797 20.632,260.806 19.899 C 260.810 19.569,260.941 19.604,261.192 20.000 C 261.524 20.526,261.655 20.516,262.253 19.918 C 262.628 19.543,263.101 19.339,263.303 19.464 C 263.505 19.589,263.288 19.895,262.820 20.145 M81.700 21.900 C 114.425 21.956,167.975 21.956,200.700 21.900 C 233.425 21.844,206.650 21.797,141.200 21.797 C 75.750 21.797,48.975 21.844,81.700 21.900 M262.902 120.858 C 262.736 121.024,262.690 98.804,262.800 71.480 L 263.000 21.800 263.102 71.178 C 263.157 98.337,263.067 120.693,262.902 120.858 M20.596 110.800 C 20.596 159.530,20.643 179.465,20.700 155.100 C 20.757 130.735,20.757 90.865,20.700 66.500 C 20.643 42.135,20.596 62.070,20.596 110.800 M393.400 123.600 C 393.237 123.864,373.869 123.967,336.276 123.902 L 279.400 123.804 336.400 123.600 C 367.750 123.488,393.456 123.352,393.524 123.298 C 393.592 123.244,393.536 123.380,393.400 123.600 M192.200 123.998 L 124.200 124.200 123.997 162.000 L 123.794 199.800 123.697 162.180 C 123.623 133.345,123.712 124.448,124.080 124.080 C 124.450 123.710,140.055 123.622,192.380 123.698 L 260.200 123.797 192.200 123.998 M379.804 137.597 C 380.119 137.335,380.267 137.402,380.267 137.806 C 380.267 138.133,380.117 138.400,379.933 138.400 C 379.750 138.400,379.600 178.540,379.600 227.600 C 379.600 287.315,379.733 316.800,380.003 316.800 C 380.274 316.800,380.373 287.426,380.303 227.728 C 380.247 178.739,380.258 138.959,380.329 139.328 C 380.400 139.698,380.625 140.000,380.829 140.000 C 381.056 140.000,381.200 174.483,381.200 228.624 C 381.200 283.219,381.057 317.159,380.828 317.017 C 380.623 316.891,380.342 316.970,380.204 317.193 C 380.066 317.417,379.593 317.600,379.153 317.600 C 378.713 317.600,378.460 317.427,378.590 317.216 C 378.740 316.973,372.271 316.828,360.968 316.821 L 343.109 316.810 343.328 317.645 C 343.448 318.104,343.440 318.373,343.310 318.243 C 343.180 318.113,342.787 318.230,342.437 318.503 C 341.893 318.927,341.870 318.910,342.277 318.387 C 342.550 318.035,342.614 317.547,342.427 317.244 C 341.729 316.115,341.535 317.828,341.489 325.513 L 341.442 333.400 341.199 325.800 L 340.956 318.200 341.086 326.200 C 341.591 357.288,341.604 363.600,341.163 363.600 C 340.894 363.600,340.784 364.004,340.896 364.588 C 340.999 365.131,340.946 365.490,340.776 365.385 C 340.607 365.281,340.408 365.352,340.334 365.545 C 340.260 365.737,339.750 366.028,339.200 366.192 C 338.431 366.421,338.305 366.379,338.654 366.011 C 339.157 365.481,338.906 363.887,338.372 364.217 C 338.187 364.332,338.129 364.672,338.245 364.972 C 338.528 365.710,337.898 366.044,337.181 365.536 C 336.715 365.206,336.745 365.172,337.333 365.363 C 337.816 365.519,338.010 365.429,337.900 365.100 C 337.808 364.825,337.538 364.600,337.300 364.600 C 337.062 364.600,336.737 364.471,336.579 364.313 C 336.421 364.154,336.668 364.098,337.128 364.186 C 337.830 364.321,337.951 364.166,337.882 363.213 C 337.837 362.588,337.680 362.152,337.534 362.241 C 337.388 362.331,337.161 362.179,337.030 361.902 C 336.898 361.626,336.871 361.823,336.968 362.340 C 337.066 362.856,337.041 363.174,336.912 363.046 C 336.784 362.917,336.425 363.125,336.114 363.506 C 335.587 364.152,335.574 364.147,335.922 363.443 C 336.344 362.588,336.101 361.200,335.530 361.200 C 335.322 361.200,335.266 361.017,335.404 360.793 C 335.542 360.570,335.851 360.508,336.089 360.655 C 336.328 360.803,336.410 360.740,336.271 360.515 C 336.133 360.291,335.546 360.198,334.967 360.308 C 333.886 360.515,332.872 359.650,333.640 359.175 C 333.873 359.031,333.750 358.696,333.342 358.365 C 332.736 357.873,332.690 357.878,332.982 358.400 C 333.167 358.730,332.931 358.603,332.459 358.117 C 331.986 357.631,331.600 356.941,331.600 356.583 C 331.600 355.737,330.713 356.039,330.198 357.061 C 329.809 357.834,329.773 357.836,329.028 357.129 C 328.351 356.486,328.339 356.400,328.930 356.400 C 329.532 356.400,329.781 355.949,329.647 355.100 C 329.621 354.935,329.810 354.800,330.067 354.800 C 330.323 354.800,330.430 354.697,330.304 354.571 C 330.178 354.444,329.528 354.624,328.860 354.969 C 328.083 355.371,327.555 355.451,327.395 355.192 C 327.257 354.969,326.977 354.891,326.772 355.017 C 326.568 355.144,326.400 355.034,326.400 354.774 C 326.400 354.456,326.829 354.380,327.700 354.543 C 328.931 354.773,328.958 354.754,328.200 354.176 C 327.760 353.840,327.445 353.483,327.500 353.383 C 327.956 352.550,327.532 352.008,326.752 352.426 C 326.068 352.792,325.957 352.775,326.181 352.340 C 326.334 352.043,326.221 352.086,325.930 352.435 C 325.638 352.784,325.186 352.998,324.925 352.910 C 324.596 352.799,324.657 352.531,325.125 352.038 C 325.496 351.647,325.980 351.415,326.200 351.522 C 326.420 351.630,326.379 351.479,326.109 351.188 C 325.705 350.752,325.460 350.795,324.716 351.429 C 324.220 351.853,324.021 351.929,324.274 351.599 C 324.623 351.142,324.610 350.767,324.221 350.038 C 323.730 349.122,323.688 349.113,323.266 349.840 C 323.015 350.271,322.819 350.374,322.812 350.076 C 322.805 349.788,322.650 349.645,322.467 349.759 C 322.283 349.872,322.133 349.706,322.133 349.389 C 322.133 348.954,322.264 348.921,322.667 349.255 C 323.083 349.601,323.200 349.507,323.200 348.825 C 323.200 348.345,323.047 348.048,322.859 348.164 C 322.671 348.280,322.177 348.125,321.760 347.820 C 321.180 347.396,320.861 347.374,320.401 347.726 C 320.071 347.979,320.143 347.784,320.562 347.293 C 321.325 346.398,321.213 346.245,319.891 346.381 C 319.501 346.421,319.208 346.306,319.238 346.127 C 319.395 345.219,319.154 344.381,318.800 344.600 C 318.435 344.825,318.245 344.192,318.292 342.904 C 318.302 342.632,318.165 342.498,317.989 342.607 C 317.813 342.716,317.577 342.579,317.466 342.302 C 317.330 341.966,317.253 342.004,317.232 342.420 C 317.214 342.761,317.425 343.282,317.700 343.579 C 318.101 344.011,318.098 344.060,317.682 343.824 C 317.398 343.663,316.871 343.772,316.512 344.066 C 315.935 344.538,315.907 344.512,316.277 343.843 C 316.739 343.008,316.521 341.600,315.930 341.600 C 315.722 341.600,315.666 341.417,315.804 341.193 C 315.942 340.970,316.268 340.909,316.528 341.058 C 316.787 341.206,316.860 341.174,316.688 340.986 C 316.052 340.287,315.276 340.515,314.793 341.542 C 314.500 342.165,314.220 342.393,314.113 342.098 C 314.013 341.821,313.739 341.714,313.504 341.859 C 313.251 342.016,313.193 341.935,313.362 341.662 C 313.519 341.408,313.919 341.200,314.252 341.200 C 314.782 341.200,314.779 341.122,314.229 340.571 C 313.536 339.878,313.366 339.008,314.000 339.400 C 314.651 339.802,314.456 339.343,313.723 338.749 C 313.141 338.276,313.089 338.283,313.353 338.800 C 313.690 339.459,312.569 338.160,311.973 337.200 C 311.653 336.685,311.500 336.718,310.895 337.427 C 310.214 338.226,310.166 338.230,309.425 337.527 C 308.674 336.814,308.678 336.799,309.630 336.768 C 310.164 336.751,310.385 336.649,310.122 336.543 C 309.860 336.436,309.744 336.090,309.865 335.774 C 310.125 335.098,309.828 335.050,308.798 335.601 C 308.294 335.871,307.966 335.869,307.797 335.595 C 307.658 335.370,307.377 335.291,307.172 335.417 C 306.968 335.544,306.800 335.434,306.800 335.174 C 306.800 334.861,307.207 334.781,308.000 334.940 C 308.660 335.072,309.200 335.078,309.200 334.953 C 309.200 334.728,307.586 332.570,307.464 332.632 C 307.429 332.650,306.968 332.896,306.439 333.179 C 305.640 333.607,305.513 333.602,305.684 333.147 C 306.396 331.258,306.439 330.810,305.890 331.021 C 305.581 331.139,305.097 330.958,304.815 330.618 C 304.533 330.278,304.459 329.997,304.651 329.994 C 305.220 329.984,303.850 329.213,303.251 329.206 C 302.804 329.201,302.796 329.314,303.208 329.810 C 303.486 330.145,303.598 330.535,303.457 330.676 C 303.316 330.818,303.200 330.713,303.200 330.443 C 303.200 330.173,303.036 330.054,302.836 330.178 C 302.294 330.513,301.296 330.027,301.014 329.291 C 300.794 328.719,300.852 328.723,301.514 329.322 C 302.459 330.178,302.666 330.174,302.668 329.300 C 302.671 328.250,301.552 327.550,300.801 328.133 C 300.291 328.529,300.275 328.504,300.697 327.963 C 301.264 327.235,300.987 326.800,299.957 326.800 C 299.567 326.800,299.137 326.622,299.003 326.405 C 298.868 326.187,298.999 326.102,299.294 326.214 C 299.634 326.345,299.829 326.118,299.829 325.589 C 299.829 324.877,299.636 324.784,298.489 324.938 C 297.276 325.102,297.203 325.057,297.714 324.459 C 299.022 322.931,298.832 322.710,297.396 324.089 C 295.518 325.893,295.087 325.811,296.769 323.969 C 297.434 323.241,297.884 322.550,297.768 322.434 C 297.651 322.318,297.411 322.458,297.234 322.745 C 296.987 323.145,296.846 323.096,296.630 322.534 C 296.304 321.686,296.431 321.344,297.000 321.533 C 297.220 321.607,297.250 321.517,297.067 321.333 C 296.469 320.736,295.813 320.954,295.103 321.987 C 294.719 322.544,294.404 322.764,294.403 322.476 C 294.401 322.183,294.197 322.078,293.938 322.238 C 293.652 322.415,293.585 322.348,293.762 322.062 C 293.919 321.808,294.352 321.597,294.724 321.594 C 295.121 321.590,295.229 321.467,294.987 321.294 C 294.759 321.132,294.579 320.658,294.587 320.240 C 294.595 319.754,294.276 319.430,293.700 319.342 C 292.995 319.235,292.799 319.399,292.794 320.103 C 292.789 320.801,292.707 320.872,292.422 320.422 C 292.197 320.066,292.209 319.556,292.454 319.099 C 292.673 318.690,292.764 318.141,292.658 317.878 C 292.551 317.615,292.449 317.715,292.432 318.100 C 292.414 318.485,292.199 318.800,291.953 318.800 C 291.683 318.800,291.589 318.370,291.716 317.708 C 291.895 316.766,291.856 316.708,291.432 317.288 C 291.112 317.727,290.630 317.881,290.053 317.730 C 289.428 317.566,289.201 317.661,289.283 318.049 C 289.486 319.004,140.079 319.060,139.380 318.105 C 139.100 317.722,138.970 317.248,139.091 317.053 C 139.212 316.857,139.061 316.787,138.756 316.898 C 138.450 317.009,138.228 317.258,138.262 317.450 C 138.296 317.643,138.050 318.051,137.716 318.358 C 137.183 318.848,137.145 318.800,137.407 317.958 C 137.572 317.431,137.862 316.940,138.053 316.867 C 138.248 316.792,138.400 277.970,138.400 228.447 C 138.400 165.405,138.524 140.036,138.835 139.725 C 139.148 139.412,139.131 139.204,138.773 138.983 C 138.453 138.785,138.378 138.841,138.562 139.138 C 138.754 139.449,138.447 139.600,137.624 139.600 C 136.418 139.600,135.913 138.748,136.795 138.203 C 137.013 138.068,137.095 138.208,136.978 138.513 C 136.852 138.841,137.024 139.067,137.400 139.067 C 137.764 139.067,137.947 138.840,137.830 138.533 C 137.660 138.090,157.773 137.999,257.513 137.994 C 331.911 137.990,377.626 137.845,377.997 137.611 C 378.367 137.377,378.735 137.375,378.967 137.607 C 379.199 137.839,379.517 137.835,379.804 137.597 M121.206 200.193 C 120.593 200.932,21.851 201.130,21.396 200.394 C 21.262 200.177,21.388 199.999,21.676 199.997 C 21.964 199.995,44.475 199.997,71.700 200.000 C 109.335 200.005,121.200 199.894,121.200 199.536 C 121.200 199.278,121.316 199.182,121.457 199.324 C 121.598 199.465,121.485 199.856,121.206 200.193 M64.021 215.101 C 32.683 215.157,6.907 215.067,6.741 214.901 C 6.576 214.736,32.216 214.690,63.720 214.800 L 121.000 215.000 64.021 215.101 M123.900 302.100 C 123.842 317.775,123.795 304.950,123.795 273.600 C 123.795 242.250,123.842 229.425,123.900 245.100 C 123.958 260.775,123.958 286.425,123.900 302.100 M139.774 317.500 C 139.871 318.164,143.743 318.200,214.638 318.202 L 289.400 318.204 214.600 318.001 L 139.800 317.797 214.476 317.698 C 263.723 317.634,289.237 317.464,289.400 317.200 C 289.564 316.934,264.549 316.800,214.659 316.800 C 143.469 316.800,139.676 316.835,139.774 317.500 M395.111 324.658 C 395.019 329.510,394.896 330.540,394.400 330.613 C 393.882 330.689,393.817 329.737,393.926 323.650 C 394.042 317.193,394.102 316.692,394.637 317.696 C 395.090 318.545,395.196 320.115,395.111 324.658 M369.300 317.900 C 364.625 317.964,356.975 317.964,352.300 317.900 C 347.625 317.836,351.450 317.783,360.800 317.783 C 370.150 317.783,373.975 317.836,369.300 317.900 M369.727 318.699 C 365.067 318.763,357.327 318.764,352.527 318.700 C 347.727 318.636,351.540 318.583,361.000 318.583 C 370.460 318.583,374.387 318.636,369.727 318.699 M343.098 329.280 C 343.026 331.326,342.966 329.760,342.965 325.800 C 342.965 321.840,343.024 320.166,343.098 322.080 C 343.171 323.994,343.171 327.234,343.098 329.280 M243.732 333.100 C 221.914 333.157,186.094 333.157,164.132 333.100 C 142.169 333.043,160.020 332.996,203.800 332.996 C 247.580 332.996,265.549 333.043,243.732 333.100 M243.732 333.900 C 221.914 333.957,186.094 333.957,164.132 333.900 C 142.169 333.843,160.020 333.796,203.800 333.796 C 247.580 333.796,265.549 333.843,243.732 333.900 M357.500 334.276 C 356.501 334.537,356.401 393.200,357.400 393.200 C 357.928 393.200,358.000 389.670,358.000 363.833 C 358.000 340.714,358.106 334.424,358.500 334.265 C 359.112 334.018,358.459 334.025,357.500 334.276 M312.394 339.500 C 312.389 340.301,312.291 340.447,312.031 340.036 C 311.835 339.726,311.767 339.231,311.880 338.936 C 312.204 338.090,312.401 338.306,312.394 339.500 M317.600 345.000 C 317.111 345.589,317.454 345.824,318.530 345.637 C 318.711 345.606,318.745 345.765,318.605 345.991 C 318.438 346.262,318.104 346.270,317.628 346.015 C 317.231 345.802,316.748 345.757,316.557 345.914 C 316.365 346.071,316.550 345.795,316.966 345.300 C 317.383 344.805,317.808 344.400,317.911 344.400 C 318.014 344.400,317.874 344.670,317.600 345.000 M300.370 347.890 C 300.921 347.462,300.933 347.485,300.471 348.076 C 300.168 348.463,299.669 348.648,299.305 348.508 C 298.849 348.333,298.761 348.414,298.996 348.794 C 299.209 349.139,299.169 349.228,298.879 349.049 C 298.635 348.898,298.541 348.498,298.671 348.160 C 298.834 347.734,299.034 347.674,299.324 347.964 C 299.613 348.253,299.933 348.231,300.370 347.890 M332.000 359.000 C 332.000 359.550,331.809 360.000,331.576 360.000 C 331.343 360.000,331.264 359.820,331.400 359.600 C 331.536 359.380,331.457 359.200,331.224 359.200 C 330.991 359.200,330.800 359.009,330.800 358.776 C 330.800 358.543,330.980 358.464,331.200 358.600 C 331.420 358.736,331.600 358.657,331.600 358.424 C 331.600 358.191,331.690 358.000,331.800 358.000 C 331.910 358.000,332.000 358.450,332.000 359.000 M334.400 361.176 C 334.400 361.383,334.220 361.664,334.000 361.800 C 333.780 361.936,333.600 361.846,333.600 361.600 C 333.600 361.354,333.392 361.281,333.138 361.438 C 332.852 361.615,332.785 361.548,332.962 361.262 C 333.304 360.708,334.400 360.643,334.400 361.176 " stroke="none" fill="#c8c4c4" fill-rule="evenodd"></path><path id="path3" d="" stroke="none" fill="#c4ccc8" fill-rule="evenodd"></path><path id="path4" d="" stroke="none" fill="#c4c4cc" fill-rule="evenodd"></path></g></svg>