<svg xmlns="http://www.w3.org/2000/svg" width="88" height="88" viewBox="0 0 88 88">
    <g fill="none" fill-rule="evenodd">
        <g fill="#FFA800" fill-rule="nonzero">
            <g>
                <path d="M250 40c24.3 0 44 19.7 44 44s-19.7 44-44 44-44-19.7-44-44 19.7-44 44-44zm0 4c-22.091 0-40 17.909-40 40s17.909 40 40 40 40-17.909 40-40-17.909-40-40-40zm.5 63c1.869 0 3.395 1.468 3.495 3.308l.005.192c0 1.869-1.468 3.395-3.308 3.495l-.192.005c-1.933 0-3.5-1.57-3.5-3.5 0-1.869 1.468-3.395 3.308-3.495l.192-.005zm.553-53.546c1.107 0 2.005.9 2.005 1.997v43.183c0 1.103-.894 1.997-2.005 1.997h-.99c-1.108 0-2.005-.9-2.005-1.997V55.451c0-1.103.894-1.997 2.005-1.997h.99z" transform="translate(-676 -306) translate(470 266)"/>
            </g>
        </g>
    </g>
</svg>
