<?xml version="1.0" encoding="UTF-8"?>
<svg width="34px" height="39px" viewBox="0 0 34 39" version="1.1" xmlns="http://www.w3.org/2000/svg" xmlns:xlink="http://www.w3.org/1999/xlink">
    <title>0B28D77B-2CE0-4CA0-A628-ABB2478FD90F</title>
    <g id="UI---People-Profiler-Admin" stroke="none" stroke-width="1" fill="none" fill-rule="evenodd">
        <g id="2.2---Agency-Admin---Create-Password" transform="translate(-598.000000, -178.000000)" fill="#AFB2B6">
            <g id="Group-15" transform="translate(298.000000, 177.000000)">
                <g id="Group-11" transform="translate(247.000000, 1.000000)">
                    <g id="Group-21" transform="translate(53.000000, 0.000000)">
                        <path d="M21.8532795,36.4221325 L21.8532795,29.137706 L12.1407108,29.137706 L12.1407108,36.4221325 L4.85628434,36.4221325 L4.85628434,3.64221325 C4.85628434,2.97234953 5.4004917,2.42814217 6.07035542,2.42814217 L27.9236349,2.42814217 C28.5934986,2.42814217 29.137706,2.97234953 29.137706,3.64221325 L29.137706,36.4221325 L21.8532795,36.4221325 Z M14.568853,36.4221325 L19.4251373,36.4221325 L19.4251373,31.5658482 L14.568853,31.5658482 L14.568853,36.4221325 Z M31.5658482,36.4221325 L31.5658482,3.64221325 C31.5658482,1.63373499 29.9321132,0 27.9236349,0 L6.07035542,0 C4.06187716,0 2.42814217,1.63373499 2.42814217,3.64221325 L2.42814217,36.4221325 L0,36.4221325 L0,38.8502747 L33.9939903,38.8502747 L33.9939903,36.4221325 L31.5658482,36.4221325 Z" id="Fill-11"></path>
                        <polygon id="Fill-13" points="10.1433413 12.3991765 14.9996257 12.3991765 14.9996257 7.54289212 10.1433413 7.54289212"></polygon>
                        <polygon id="Fill-15" points="20.2009085 12.3991765 25.0571929 12.3991765 25.0571929 7.54289212 20.2009085 7.54289212"></polygon>
                        <polygon id="Fill-16" points="10.1433413 19.9420989 14.9996257 19.9420989 14.9996257 15.0858146 10.1433413 15.0858146"></polygon>
                        <polygon id="Fill-17" points="20.2009085 19.9420989 25.0571929 19.9420989 25.0571929 15.0858146 20.2009085 15.0858146"></polygon>
                        <polygon id="Fill-18" points="10.1433413 27.4853249 14.9996257 27.4853249 14.9996257 22.6290406 10.1433413 22.6290406"></polygon>
                        <polygon id="Fill-19" points="20.2009085 27.4853249 25.0571929 27.4853249 25.0571929 22.6290406 20.2009085 22.6290406"></polygon>
                    </g>
                </g>
            </g>
        </g>
    </g>
</svg>