<?xml version="1.0" encoding="UTF-8"?>
<svg width="52px" height="31px" viewBox="0 0 52 31" version="1.1" xmlns="http://www.w3.org/2000/svg" xmlns:xlink="http://www.w3.org/1999/xlink">
    <title>333122E1-6F5E-4106-B74A-5AF1DDB7C7C6</title>
    <g id="UI---People-Profiler-Admin" stroke="none" stroke-width="1" fill="none" fill-rule="evenodd">
        <g id="2.2---Agency-Admin---Create-Password" transform="translate(-342.000000, -182.000000)" fill="#3ABCCA">
            <g id="Group-15" transform="translate(298.000000, 177.000000)">
                <g id="Group-12" transform="translate(0.000000, 5.000000)">
                    <g id="Group-20" transform="translate(44.000000, 0.000000)">
                        <path d="M10.3575945,8.09380723 C10.0603495,7.5764106 9.40070416,7.40138202 8.88421809,7.69862709 L8.63341124,7.84340506 L8.63341124,7.5542538 C8.63341124,6.95774021 8.15081798,6.47504578 7.55430439,6.47504578 C6.9577908,6.47504578 6.47509637,6.95774021 6.47509637,7.5542538 L6.47509637,7.84340506 L6.22428952,7.69862709 C5.70992807,7.40461954 5.04815815,7.57843405 4.75091308,8.09380723 C4.45164456,8.61019213 4.62869659,9.26993859 5.14508149,9.56819538 L5.39528131,9.71256867 L5.14508149,9.85704313 C4.62869659,10.1551988 4.45164456,10.8149452 4.75091308,11.3313301 C4.94911019,11.6770369 5.3137362,11.8709847 5.68463492,11.8709847 C5.86806082,11.8709847 6.05351018,11.8245465 6.22428952,11.7265103 L6.47509637,11.5818334 L6.47509637,11.8709847 C6.47509637,12.4673971 6.9577908,12.9500916 7.55430439,12.9500916 C8.15081798,12.9500916 8.63341124,12.4673971 8.63341124,11.8709847 L8.63341124,11.5818334 L8.88421809,11.7265103 C9.05499742,11.8245465 9.24044678,11.8709847 9.42387268,11.8709847 C9.79487257,11.8709847 10.1594986,11.6770369 10.3575945,11.3313301 C10.656863,10.8149452 10.479811,10.1551988 9.96342611,9.85704313 L9.71322629,9.71256867 L9.96342611,9.56819538 C10.479811,9.26993859 10.656863,8.61019213 10.3575945,8.09380723" id="Fill-1"></path>
                        <path d="M18.9909552,8.09380723 C18.6937101,7.5764106 18.0340648,7.40138202 17.5175787,7.69862709 L17.2667719,7.84340506 L17.2667719,7.5542538 C17.2667719,6.95774021 16.7841786,6.47504578 16.187665,6.47504578 C15.5911514,6.47504578 15.108457,6.95774021 15.108457,7.5542538 L15.108457,7.84340506 L14.8576502,7.69862709 C14.3432887,7.40461954 13.6815188,7.57843405 13.3842737,8.09380723 C13.0850052,8.61019213 13.2620572,9.26993859 13.7784421,9.56819538 L14.028642,9.71256867 L13.7784421,9.85704313 C13.2620572,10.1551988 13.0850052,10.8149452 13.3842737,11.3313301 C13.5824708,11.6770369 13.9470969,11.8709847 14.3179956,11.8709847 C14.5014215,11.8709847 14.6868708,11.8245465 14.8576502,11.7265103 L15.108457,11.5818334 L15.108457,11.8709847 C15.108457,12.4673971 15.5911514,12.9500916 16.187665,12.9500916 C16.7841786,12.9500916 17.2667719,12.4673971 17.2667719,11.8709847 L17.2667719,11.5818334 L17.5175787,11.7265103 C17.6883581,11.8245465 17.8738074,11.8709847 18.0572333,11.8709847 C18.4282332,11.8709847 18.7928592,11.6770369 18.9909552,11.3313301 C19.2902237,10.8149452 19.1131717,10.1551988 18.5967868,9.85704313 L18.3466881,9.71256867 L18.5967868,9.56819538 C19.1131717,9.26993859 19.2902237,8.61019213 18.9909552,8.09380723" id="Fill-3"></path>
                        <path d="M27.230198,9.85701278 L26.9799982,9.71253832 L27.230198,9.56826621 C27.7465829,9.26990824 27.9236349,8.61026295 27.6243664,8.09377687 C27.3271213,7.57638025 26.6632268,7.40145284 26.15099,7.69859674 L25.9001831,7.84347589 L25.9001831,7.55422345 C25.9001831,6.95781103 25.4174887,6.47501543 24.8210763,6.47501543 C24.2245627,6.47501543 23.7418683,6.95781103 23.7418683,7.55422345 L23.7418683,7.84347589 L23.4910614,7.69859674 C22.9788246,7.40458919 22.31493,7.57850487 22.017685,8.09377687 C21.7184164,8.61026295 21.8954685,9.26990824 22.4118534,9.56826621 L22.6620532,9.71253832 L22.4118534,9.85701278 C21.8954685,10.1551684 21.7184164,10.815016 22.017685,11.3312998 C22.2157809,11.6770065 22.5805081,11.8709544 22.9514068,11.8709544 C23.1348327,11.8709544 23.3202821,11.8245161 23.4910614,11.7265811 L23.7418683,11.5818031 L23.7418683,11.8709544 C23.7418683,12.467468 24.2245627,12.9500612 24.8210763,12.9500612 C25.4174887,12.9500612 25.9001831,12.467468 25.9001831,11.8709544 L25.9001831,11.5818031 L26.15099,11.7265811 C26.3217693,11.8245161 26.5072187,11.8709544 26.6906446,11.8709544 C27.0615433,11.8709544 27.4261693,11.6770065 27.6243664,11.3312998 C27.9236349,10.815016 27.7465829,10.1551684 27.230198,9.85701278" id="Fill-5"></path>
                        <path d="M39.9294827,28.0585992 C34.5736081,28.0585992 30.216914,23.7018039 30.216914,18.3460305 C30.216914,12.9902571 34.5736081,8.63346182 39.9294827,8.63346182 C45.2853573,8.63346182 49.6420514,12.9902571 49.6420514,18.3460305 C49.6420514,23.7018039 45.2853573,28.0585992 39.9294827,28.0585992 M2.15841604,15.1085076 L2.15841604,4.31673091 C2.15841604,3.12684008 3.12582835,2.15841604 4.31673091,2.15841604 L43.1670056,2.15841604 C44.3579082,2.15841604 45.3253205,3.12684008 45.3253205,4.31673091 L45.3253205,7.78573669 C43.704232,6.95379448 41.8732105,6.47504578 39.9294827,6.47504578 C37.9857549,6.47504578 36.1547334,6.95379448 34.5336449,7.78573669 L34.5336449,7.5542538 C34.5336449,6.95784138 34.0509505,6.47504578 33.4544369,6.47504578 C32.8579233,6.47504578 32.3752289,6.95784138 32.3752289,7.5542538 L32.3752289,7.84340506 L32.1244221,7.69862709 C31.6080372,7.40461954 30.9461661,7.57843405 30.6511468,8.09380723 C30.3517771,8.6102933 30.5288291,9.26993859 31.045214,9.56819538 L31.2954138,9.71256867 L31.045214,9.85704313 C30.6097672,10.1085582 30.4357503,10.6139153 30.5652513,11.0769822 C29.208628,12.8206918 28.3237725,14.9455186 28.1132324,17.2668225 L4.31673091,17.2668225 C3.12582835,17.2668225 2.15841604,16.2982973 2.15841604,15.1085076 M47.4837365,9.19638612 L47.4837365,4.31673091 C47.4837365,1.93603869 45.5466861,-2.27373675e-13 43.1670056,-2.27373675e-13 L4.31673091,-2.27373675e-13 C1.93705041,-2.27373675e-13 0,1.93603869 0,4.31673091 L0,15.1085076 C0,17.4891998 1.93705041,19.4251373 4.31673091,19.4251373 L28.1132324,19.4251373 C28.6611831,25.4662539 33.7491527,30.216914 39.9294827,30.216914 C46.4741352,30.216914 51.8003662,24.8915936 51.8003662,18.3460305 C51.8003662,14.6680021 50.1182708,11.3755425 47.4837365,9.19638612" id="Fill-7"></path>
                        <path d="M44.5623678,14.3454639 L37.7711577,21.1366741 L35.2966785,18.6621948 C34.8750923,18.2406087 34.1921773,18.2406087 33.7705912,18.6621948 C33.3491061,19.0836798 33.3491061,19.7665948 33.7705912,20.188181 L37.008114,23.4257039 C37.2189577,23.6364464 37.4950577,23.7418683 37.7711577,23.7418683 C38.0472577,23.7418683 38.3233577,23.6364464 38.5342014,23.4257039 L46.088354,15.8714501 C46.5099402,15.4499651 46.5099402,14.7670501 46.088354,14.3454639 C45.6667678,13.9238777 44.9838529,13.9238777 44.5623678,14.3454639" id="Fill-9"></path>
                    </g>
                </g>
            </g>
        </g>
    </g>
</svg>