<svg xmlns="http://www.w3.org/2000/svg" width="39" height="39" viewBox="0 0 39 39">
    <defs>
        <filter id="f9d8fy3bra">
            <feColorMatrix in="SourceGraphic" values="0 0 0 0 0.228625 0 0 0 0 0.738982 0 0 0 0 0.790761 0 0 0 1.000000 0"/>
        </filter>
    </defs>
    <g fill="none" fill-rule="evenodd">
        <g filter="url(#f9d8fy3bra)" transform="translate(-576 -178)">
            <g>
                <g fill="#A3A6AB">
                    <path d="M2.428 36.422V2.428H26.71v7.703c-.657-.242-1.434-.418-2.442-.418-2.187 0-3.366.786-4.312 1.418-.846.564-1.514 1.01-2.966 1.01-1.451 0-2.119-.446-2.965-1.01-.946-.632-2.125-1.418-4.312-1.418v2.428c1.45 0 2.118.445 2.965 1.01.946.632 2.124 1.418 4.312 1.418 2.187 0 3.367-.786 4.313-1.418.847-.565 1.514-1.01 2.965-1.01 1.143 0 1.801.278 2.442.67v7.032c-.657-.241-1.434-.418-2.442-.418-2.187 0-3.366.786-4.312 1.418-.846.565-1.514 1.01-2.966 1.01-1.451 0-2.119-.445-2.965-1.01-.946-.632-2.125-1.418-4.312-1.418v2.428c1.45 0 2.118.446 2.965 1.01.946.632 2.124 1.418 4.312 1.418 2.187 0 3.367-.786 4.313-1.418.847-.564 1.514-1.01 2.965-1.01 1.143 0 1.801.279 2.442.67v5.819c-.657-.242-1.434-.418-2.442-.418-2.187 0-3.366.786-4.312 1.418-.846.564-1.514 1.01-2.966 1.01-1.451 0-2.119-.446-2.965-1.01-.946-.632-2.125-1.418-4.312-1.418v2.428c1.45 0 2.118.445 2.965 1.01.946.632 2.124 1.418 4.312 1.418 2.187 0 3.367-.786 4.313-1.418.847-.565 1.514-1.01 2.965-1.01 1.143 0 1.801.278 2.442.67v5.4H2.428zM31.56 14.57c2.19 0 3.37-.786 4.318-1.418.848-.565 1.516-1.01 2.972-1.01V9.713c-2.19 0-3.37.786-4.319 1.418-.846.564-1.516 1.01-2.971 1.01-1.132 0-1.788-.273-2.422-.658V1.214C29.138.543 28.595 0 27.924 0H1.214C.543 0 0 .543 0 1.214v36.422c0 .671.543 1.214 1.214 1.214h26.71c.67 0 1.214-.543 1.214-1.214v-5.269c.653.238 1.423.413 2.422.413 2.19 0 3.37-.786 4.318-1.418.848-.565 1.516-1.01 2.972-1.01v-2.428c-2.19 0-3.37.786-4.319 1.418-.846.564-1.516 1.01-2.971 1.01-1.132 0-1.788-.272-2.422-.657v-5.826c.653.238 1.423.412 2.422.412 2.19 0 3.37-.786 4.318-1.418.848-.564 1.516-1.01 2.972-1.01v-2.428c-2.19 0-3.37.786-4.319 1.418-.846.565-1.516 1.01-2.971 1.01-1.132 0-1.788-.272-2.422-.657v-7.04c.653.238 1.423.413 2.422.413z" transform="translate(526 178) translate(50)"/>
                </g>
            </g>
        </g>
    </g>
</svg>
