<?xml version="1.0" encoding="UTF-8"?>
<svg width="44px" height="41px" viewBox="0 0 44 41" version="1.1" xmlns="http://www.w3.org/2000/svg" xmlns:xlink="http://www.w3.org/1999/xlink">
    <title>1370A87A-3B41-417F-89C1-FA76E0FD50B8</title>
    <g id="UI---People-Profiler-Admin" stroke="none" stroke-width="1" fill="none" fill-rule="evenodd">
        <g id="2.2---Agency-Admin---Create-Password" transform="translate(-1088.000000, -176.000000)" fill="#AFB2B6" stroke="#AFB2B6" stroke-width="0.3">
            <g id="Group-15" transform="translate(298.000000, 177.000000)">
                <g id="Group-8" transform="translate(742.000000, 0.000000)">
                    <g id="Group-22" transform="translate(49.000000, 0.000000)">
                        <path d="M40.7800878,35.6984286 C40.7800878,36.679444 39.9845432,37.4778692 39.0070672,37.4778692 L8.86521836,37.4778692 C7.88782548,37.4778692 7.09219776,36.679444 7.09219776,35.6984286 L7.09219776,16.1242486 C7.09219776,15.1433167 7.88782548,14.3448081 8.86521836,14.3448081 L39.0070672,14.3448081 C39.9845432,14.3448081 40.7800878,15.1433167 40.7800878,16.1242486 L40.7800878,35.6984286 Z M4.64206664,24.2764103 L5.31917716,23.8807845 L5.31917716,25.4635382 L4.64206664,24.2764103 Z M2.65004687,17.231217 L5.36763125,15.6434585 C5.34593911,15.8022761 5.31917716,15.9595922 5.31917716,16.1242486 L5.31917716,17.7171787 L2.00651345,19.6526008 C1.52762418,18.804128 1.81485801,17.7196811 2.65004687,17.231217 L2.65004687,17.231217 Z M5.31917716,21.8219118 L3.76100015,22.7322767 L2.88575148,21.1977354 L5.31917716,19.7760514 L5.31917716,21.8219118 Z M28.5038338,2.12578257 C28.9055123,1.89114298 29.3730153,1.82599776 29.8206546,1.9476133 C30.2734468,2.06922884 30.6508568,2.36292454 30.8854809,2.77389832 L30.8873925,2.77715141 L14.1356598,12.5653675 L10.6359118,12.5653675 L28.5038338,2.12578257 Z M33.5241923,7.39970979 L36.4707493,12.5653675 L24.6839397,12.5653675 L33.5241923,7.39970979 Z M17.6594271,12.5653675 L31.7682096,4.32136851 L32.6432921,5.8555761 L21.1604218,12.5653675 L17.6594271,12.5653675 Z M39.0070672,12.5653675 L38.5145476,12.5653675 L32.4247916,1.88939132 C31.9529668,1.06394042 31.1910824,0.473963243 30.2794308,0.228980494 C29.9405847,0.138144194 29.5959207,0.0990236939 29.2546643,0.110367805 C28.6823576,0.129469286 28.1200242,0.290622391 27.6112979,0.587821415 L1.75834209,15.6933392 C0.627192686,16.3541337 -0.00520377618,17.5591118 -4.14609306e-13,18.793618 C0.00252560626,19.3901848 0.155035464,19.9937582 0.470111688,20.5460329 L5.31917716,29.0465256 L5.31917716,35.6984286 C5.31917716,37.66121 6.90951838,39.2573932 8.86521836,39.2573932 L39.0070672,39.2573932 C40.9627672,39.2573932 42.5531915,37.66121 42.5531915,35.6984286 L42.5531915,16.1242486 C42.5531915,14.1614672 40.9627672,12.5653675 39.0070672,12.5653675 L39.0070672,12.5653675 Z" id="Fill-21"></path>
                        <path d="M33.643617,31.5977788 C33.2176596,31.5977788 32.8080386,31.4731521 32.455984,31.2379412 C32.294867,31.1299101 32.1047939,31.0758946 31.9148936,31.0758946 C31.7249069,31.0758946 31.5349202,31.1299101 31.3737168,31.2379412 C31.0216622,31.4731521 30.6120412,31.5977788 30.1861702,31.5977788 C29.1057181,31.5977788 28.2269215,30.8340614 28.2269215,29.8956911 C28.2269215,28.9573207 29.1057181,28.1936033 30.1861702,28.1936033 C30.6120412,28.1936033 31.0216622,28.31823 31.3737168,28.5534409 C31.6961237,28.7695828 32.1336636,28.7695828 32.455984,28.5534409 C32.8080386,28.31823 33.2176596,28.1936033 33.643617,28.1936033 C34.7240691,28.1936033 35.6027793,28.9573207 35.6027793,29.8956911 C35.6027793,30.8340614 34.7240691,31.5977788 33.643617,31.5977788 M33.643617,26.4914357 C33.0385638,26.4914357 32.4505386,26.621089 31.9148936,26.8704221 C31.3791622,26.621089 30.7912234,26.4914357 30.1861702,26.4914357 C28.0891423,26.4914357 26.3829787,28.0182323 26.3829787,29.8956911 C26.3829787,31.7731498 28.0891423,33.2999464 30.1861702,33.2999464 C30.7912234,33.2999464 31.3791622,33.1702931 31.9148936,32.92096 C32.4505386,33.1702931 33.0385638,33.2999464 33.643617,33.2999464 C35.7405585,33.2999464 37.4468085,31.7731498 37.4468085,29.8956911 C37.4468085,28.0182323 35.7405585,26.4914357 33.643617,26.4914357" id="Fill-22"></path>
                        <path d="M11.1346941,28.1935634 L20.3545811,28.1935634 C20.8642088,28.1935634 21.2765957,27.8129104 21.2765957,27.3424996 C21.2765957,26.8721685 20.8642088,26.4914357 20.3545811,26.4914357 L11.1346941,26.4914357 C10.6250665,26.4914357 10.212766,26.8721685 10.212766,27.3424996 C10.212766,27.8129104 10.6250665,28.1935634 11.1346941,28.1935634" id="Fill-23"></path>
                        <path d="M23.7766487,32.4488825 L11.1169683,32.4488825 C10.617224,32.4488825 10.212766,32.8295355 10.212766,33.2999464 C10.212766,33.7702774 10.617224,34.1510102 11.1169683,34.1510102 L23.7766487,34.1510102 C24.2764778,34.1510102 24.6808511,33.7702774 24.6808511,33.2999464 C24.6808511,32.8295355 24.2764778,32.4488825 23.7766487,32.4488825" id="Fill-24"></path>
                    </g>
                </g>
            </g>
        </g>
    </g>
</svg>