<svg xmlns="http://www.w3.org/2000/svg" width="52" height="60" viewBox="0 0 52 60">
    <g fill="none" fill-opacity=".15" fill-rule="evenodd">
        <g fill="#3ABCCA" fill-rule="nonzero">
            <g>
                <path d="M94.943 82.776l-3.034-7.65c-.707-1.78-1.064-3.654-1.064-5.571v-13.84c0-9.602-6.337-17.653-14.984-20.37C75.347 32.318 72.742 30 69.595 30c-3.148 0-5.753 2.317-6.267 5.346-8.647 2.716-14.983 10.767-14.983 20.368v13.841c0 1.917-.357 3.792-1.065 5.57l-3.034 7.651c-.262.661-.18 1.406.214 1.997.396.59 1.054.941 1.76.941h16.153C63.88 88.297 66.567 90 69.595 90c3.027 0 5.715-1.703 7.221-4.286H92.97c.706 0 1.363-.351 1.76-.941.394-.59.475-1.336.213-1.997zm-45.586-1.348l1.87-4.712c.907-2.285 1.367-4.696 1.367-7.161V55.714c0-9.455 7.627-17.143 17-17.143 9.374 0 17 7.688 17 17.143v13.84c0 2.466.461 4.877 1.368 7.162l1.87 4.712H49.357z" transform="translate(-314 -543) translate(270 513)"/>
            </g>
        </g>
    </g>
</svg>
