<svg xmlns="http://www.w3.org/2000/svg" width="40" height="40" viewBox="0 0 40 40">
    <g fill="none" fill-rule="evenodd">
        <g>
            <g>
                <g transform="translate(-433 -211) translate(433 190) translate(0 21)">
                    <circle cx="20" cy="20" r="20" fill="#3ABCCA"/>
                    <path fill="#FFF" fill-rule="nonzero" d="M19.714 30.429c1.944 0 3.737-.48 5.378-1.437 1.642-.958 2.942-2.258 3.9-3.9.958-1.641 1.437-3.434 1.437-5.378s-.48-3.734-1.437-5.37c-.958-1.647-2.258-2.95-3.9-3.907C23.451 9.479 21.658 9 19.714 9s-3.736.479-5.378 1.437c-1.641.958-2.941 2.258-3.9 3.9C9.48 15.976 9 17.77 9 19.713s.479 3.737 1.437 5.378c.958 1.642 2.258 2.942 3.9 3.9 1.64.958 3.433 1.437 5.377 1.437zm1.34-16.072h-2.679c-.13 0-.237-.042-.32-.125-.085-.084-.126-.191-.126-.321v-2.232c0-.13.041-.238.125-.321.084-.084.19-.126.321-.126h2.679c.13 0 .237.042.32.126.084.083.126.19.126.32v2.233c0 .13-.042.237-.126.32-.083.084-.19.126-.32.126zm1.785 12.5h-6.25c-.13 0-.237-.042-.32-.125-.084-.084-.126-.191-.126-.321v-2.232c0-.13.042-.238.125-.321.084-.084.191-.126.321-.126h1.34v-4.464h-1.34c-.13 0-.237-.042-.32-.126-.084-.083-.126-.19-.126-.32v-2.233c0-.13.042-.237.125-.32.084-.084.191-.126.321-.126h4.465c.13 0 .237.042.32.125.084.084.126.191.126.321v7.143h1.34c.13 0 .236.042.32.126.084.083.126.19.126.32v2.233c0 .13-.042.237-.126.32-.084.084-.19.126-.32.126z"/>
                </g>
            </g>
        </g>
    </g>
</svg>
